<?xml version="1.0" encoding="UTF-8"?>
<svg id="_レイヤー_2" data-name="レイヤー 2" xmlns="http://www.w3.org/2000/svg" viewBox="0 0 100 100">
  <defs>
    <style>
      .cls-1 {
        fill: none;
      }

      .cls-2 {
        fill: #fff;
      }

      .cls-3 {
        fill: #333;
      }
    </style>
  </defs>
  <g id="_レイヤー_1-2" data-name="レイヤー 1">
    <g>
      <g>
        <path class="cls-3" d="M85.16,46.81c-2.2-3.9-4.79-7.7-8.03-11.11.17-4.04.19-6.58-.79-7.62-.85-.91-2.15-.44-5.64,2.09-1.05-.73-2.16-1.42-3.32-2.07-.62-.35-1.18-.68-1.69-1,.38-.04.72-.07,1-.11.8-.11,2.73-.21,2.76-.7.04-.5-.47-1.25-1.14-1.26s-3.21.57-4.11.56c-.15,0-.36,0-.6.01-1.03-.87-1.67-1.66-2.08-2.39.05-.01.1-.03.15-.04,1.45-.37,2.29-.9,3.35-1.23,1.06-.33,1.98-.21,3.15-.45s.9-1.61-.1-1.61c-1,0-2.98.21-4.54.49-1.04.18-1.89.49-2.77.78-.25-1.04-.39-2.01-1.17-3.02-2.18-2.81-.94-6.55-2.18-8.73-1.25-2.18-1.87-2.81-5.62-.31-3.74,2.5-5.3,6.24-8.11,6.24h-9.98c-1.87,0-8.11-9.05-10.29-7.8s-2.81,4.99-3.12,11.23c-.09,1.89-.16,3.72-.24,5.4-1.06-.2-2.06-.45-3.28-.52-1.59-.08-3.58-.05-4.57.07-.99.12-1.09,1.52.1,1.61,1.19.09,2.09-.14,3.18.06,1.09.2,1.99.61,3.48.8.32.04.65.1.97.15-.06.83-.12,1.6-.21,2.3-1.22.12-2.43.18-2.98.26-.89.13-3.48-.14-4.15-.05s-1.08.91-.98,1.4,2.02.34,2.83.36,2.17-.05,3.31-.09c.44-.01,1.02,0,1.64.02-.17.72-.39,1.28-.67,1.63-1.08,1.35-2.61,5.48-3.42,9.79-2.11,1.34-3.76,2.76-4.63,4.02-2.05,2.99,1.07,5.81,2.74,7.33.69.63,1.65,1.2,2.81,1.72.55,2.07,1.21,4.07,1.87,5.83,1.87,4.99,1.6,13.99,1.91,18.35.31,4.37.62,9.36,4.37,11.85,3.74,2.5,8.11,1.25,14.97,1.25s15.29,0,21.84-.31c6.55-.31,12.17,1.25,15.91,0,3.74-1.25,9.05-6.86,9.98-12.48.94-5.62,2.15-25.53-1.91-32.7ZM76.74,47.81c-1.42.15-6.66-2.01-8.95-2.96-3.66-1.52-4.37-1.77-5.05-1.5-.38.15-.74.49-1.62,1.31-2.64,2.46-8.82,8.22-17.26,9.96-11.26,2.31-25.32.29-28.93-2.99-3.08-2.8-2.87-3.71-2.4-4.4,2.07-3.01,9.69-7.17,16.69-8.26.83,1.01,2.79,2.81,6.05,2.56,3.63-.28,5.4-3.52,6.34-5.26.05-.09.1-.18.14-.26,0,0,0,0,0,0,1.27,1.42,3.64,4.08,6.41,3.85,3.61-.29,5.83-2.52,6.85-3.85,1.36.78,3.7,2.06,4.83,2.25,4.65.78,7.44-2.35,7.99-3.05,2.56-2.09,5.65-4.38,7.03-5.1.22,1.26.1,4.07.03,5.7-.06,1.44-.12,2.79-.06,3.74.14,2.36.78,4.19,1.3,5.67.39,1.1.7,1.99.61,2.59Z"/>
        <g>
          <path class="cls-2" d="M46.13,27.06c-.17-.29.12-.64.43-.51.99.42,1.98.69,3.31.59.91-.07,1.84-.75,2.19-1.26.21-.3.69-.2.74.17.11.7-.47,1.58-.98,1.95-.96.68-2.03.91-3.53.63-1.13-.21-1.79-.94-2.16-1.57Z"/>
          <path class="cls-2" d="M30.73,26.63c-.09-.32.29-.58.55-.37.84.67,1.72,1.2,3.03,1.46.89.18,1.97-.23,2.45-.62.29-.24.71,0,.67.37-.09.7-.88,1.4-1.47,1.61-1.11.4-2.2.33-3.57-.35-1.03-.51-1.47-1.39-1.66-2.1Z"/>
        </g>
      </g>
      <rect class="cls-1" width="100" height="100"/>
    </g>
  </g>
</svg>