<?xml version="1.0" encoding="UTF-8"?>
<svg id="_レイヤー_2" data-name="レイヤー 2" xmlns="http://www.w3.org/2000/svg" viewBox="0 0 100 100">
  <defs>
    <style>
      .cls-1 {
        fill: none;
      }

      .cls-2 {
        fill: #333;
      }
    </style>
  </defs>
  <g id="_レイヤー_1-2" data-name="レイヤー 1">
    <g>
      <g>
        <path class="cls-2" d="M26.34,86.88c-4.63-1.85-11.37-9.24-14.21-14.57-2.84-5.33-4.26-16.34-4.62-22.03-.36-5.68,3.55-18.12,7.82-24.16,4.26-6.04,15.99-14.57,25.23-14.92s23.01-1.37,32.27,4c6.05,3.51,18.52,16.43,20.61,27.49,1.3,6.88-1.4,23.58-3.88,27.49-2.49,3.91-5.38,9.86-11.65,15.54-3.42,3.1-9.28,5.07-10.35,5.07s-.36-14.57-.36-18.83-.67-9.36-2.13-11.44c-.51-.73,2.62-1.75,5.63-3.54,3.42-2.04,6.9-4.96,8.58-7.04s2.25-3.38.71-5.68c-.81-1.22-9.59-8.88-10.3-9.95s-1.07-5.33-2.49-7.46-3.91,3.2-4.97,4.26-11.01,1.07-14.21,1.42-7.46.71-9.24,1.07-3.55-6.75-4.97-7.11-4.26,9.24-4.26,9.24c0,0-6.76,7.71-8.84,9.79-1.35,1.35,2.45,6.9,6.71,9.04s6.75,2.49,9.24,3.91l2.49,1.42s-2.39,3.55-2.6,6.26c-.1,1.31-3.44,1.91-8.41.84s-7.11-5.68-7.82-7.46-3.91-4.26-5.68-3.55,1.17,1.81,1.91,4.75c1.18,4.66,3.77,12.66,8.75,14.43,4.97,1.78,9.95,1.07,11.01,1.07s.36,13.5-.36,14.21-6.04-2.13-9.59-3.55Z"/>
        <g>
          <path class="cls-2" d="M56.11,42.17c-.22-.37.15-.81.55-.65,1.26.53,2.52.88,4.22.75,1.16-.09,2.34-.96,2.8-1.61.27-.39.87-.25.95.22.14.89-.6,2.02-1.25,2.49-1.22.87-2.58,1.16-4.5.8-1.44-.27-2.28-1.2-2.76-2.01Z"/>
          <path class="cls-2" d="M36.47,41.62c-.11-.41.37-.74.7-.48,1.07.85,2.19,1.53,3.86,1.87,1.14.23,2.51-.29,3.13-.79.37-.3.91,0,.85.47-.11.89-1.12,1.78-1.88,2.05-1.41.51-2.8.42-4.55-.45-1.31-.65-1.87-1.77-2.11-2.68Z"/>
        </g>
      </g>
      <rect class="cls-1" width="100" height="100"/>
    </g>
  </g>
</svg>