<?xml version="1.0" encoding="UTF-8"?>
<svg id="_レイヤー_2" data-name="レイヤー 2" xmlns="http://www.w3.org/2000/svg" viewBox="0 0 100 100">
  <defs>
    <style>
      .cls-1 {
        fill: none;
      }

      .cls-2 {
        fill: #fff;
      }

      .cls-3 {
        fill: #333;
      }
    </style>
  </defs>
  <g id="_レイヤー_1-2" data-name="レイヤー 1">
    <g>
      <path class="cls-3" d="M85.16,46.81c-2.2-3.9-4.79-7.7-8.03-11.11-1.81-1.89-4.18-3.63-6.43-5.54-1.05-.73-2.16-1.42-3.32-2.07-.62-.35-1.18-.68-1.69-1,.38-.04.72-.07,1-.11.8-.11,2.73-.21,2.76-.7.04-.5-.47-1.25-1.14-1.26-.68-.01-3.21.57-4.11.56-.15,0-.36,0-.6.01-1.03-.87-1.67-1.66-2.08-2.39.05-.01.1-.03.15-.04,1.45-.37,2.29-.9,3.35-1.23,1.06-.33,1.98-.21,3.15-.45,1.17-.24.9-1.61-.1-1.61-1,0-2.98.21-4.54.49-1.04.18-1.89.49-2.77.78-.25-1.04-.39-2.01-1.17-3.02-2.18-2.81-.94-6.55-2.18-8.73-1.25-2.18-1.87-2.81-5.62-.31-3.74,2.5-5.3,6.24-8.11,6.24h-9.98c-1.87,0-8.11-9.05-10.29-7.8-2.18,1.25-2.81,4.99-3.12,11.23-.09,1.89-.16,3.72-.24,5.4-1.06-.2-2.06-.45-3.28-.52-1.59-.08-3.58-.05-4.57.07-.99.12-1.09,1.52.1,1.61s2.09-.14,3.18.06c1.09.2,1.99.61,3.48.8.32.04.65.1.97.15-.06.83-.12,1.6-.21,2.3-1.22.12-2.43.18-2.98.26-.89.13-3.48-.14-4.15-.05-.67.09-1.08.91-.98,1.4.1.49,2.02.34,2.83.36.81.01,2.17-.05,3.31-.09.44-.01,1.02,0,1.64.02-.17.72-.39,1.28-.67,1.63-1.08,1.35-2.61,5.48-3.42,9.79-.87,5.35-.24,11.22.92,13.07.55,2.07,1.21,4.07,1.87,5.83,1.48,3.96,1.62,10.42,1.77,15.11-3.96,2.2-7.28,4.78-8.51,6.58-1.93,2.81,1.09,5.55,2.7,7.02,3.43,3.11,12.41,4.5,19.8,4.5,3.87,0,7.53-.35,10.87-1.04.97-.2,1.89-.45,2.8-.74,4.72-.03,9.55-.1,13.65-.3,6.55-.31,12.17,1.25,15.91,0,3.74-1.25,9.05-6.86,9.98-12.48.94-5.61,2.15-25.53-1.91-32.7ZM68.26,81.29c-3.66-1.52-4.37-1.77-5.05-1.5-.38.15-.74.49-1.62,1.31-2.64,2.46-8.82,8.22-17.26,9.96-11.26,2.31-25.32.29-28.93-2.99-3.08-2.8-2.87-3.71-2.4-4.4,2.07-3.01,11.24-8.81,18.24-9.9,4.73-1.63,12.53-2.06,12.53-2.06,5.23.16,7.77.63,11.74,1.59,1.36.78,3.67,1.22,4.8,1.41,4.65.78,7.44-2.35,7.99-3.05,2.56-2.09,5.65-4.38,7.03-5.1.22,1.26.1,4.07.03,5.7-.06,1.44-.12,2.79-.07,3.74.14,2.36.78,4.19,1.3,5.67.39,1.1.7,1.99.61,2.59-1.42.15-6.66-2.01-8.95-2.96Z"/>
      <g>
        <g>
          <g>
            <path class="cls-2" d="M40.36,31.41c-.14-.76.96-1.45,1.33-.77,1.75,3.26,3.25,5,6.24,5.78,3.8.99,5.12-1.48,6.29-2.3.71-.49,1.58-.49,1.42.36-.32,1.6-2.27,3.07-3.66,3.46-2.61.73-5.12.39-8.15-1.41-2.28-1.35-3.15-3.45-3.46-5.12Z"/>
            <path class="cls-2" d="M27.01,36.11c-.53-.57.1-1.21.77-.84,2.69,1.47,3.42,1.86,7.56.81,2.78-.7,3.92-4.2,4.48-5.52.34-.79,1.45-.78,1.76.03.58,1.52-.29,3.81-1.27,4.88-1.83,2.01-4.13,3.05-7.66,3.14-2.65.07-4.5-1.25-5.65-2.5Z"/>
          </g>
          <rect class="cls-1" width="100" height="100"/>
        </g>
        <path class="cls-3" d="M42.34,69.53c-.11,3.51-.94,7.78,2.41,9.27s2.6-.74,2.6-.74c0,0,.19,1.49,2.79.93s1.86-1.67,1.86-1.67c0,0,1.86,1.3,2.42,0s0-3.72,2.6-5.21-.19-9.67-5.21-9.49-9.42,4.91-9.48,6.91Z"/>
        <path class="cls-2" d="M48.45,26.19c-.71-.74,0-2.9,1.63-2.36s1.25,2.08.83,2.57-1.85.43-2.47-.21Z"/>
        <path class="cls-2" d="M29.35,26.54c-.64-.82.42-1.54.84-1.82s1.82,0,1.96.98-1.12,3.01-2.8.84Z"/>
      </g>
    </g>
  </g>
</svg>