<?xml version="1.0" encoding="UTF-8"?>
<svg id="_レイヤー_2" data-name="レイヤー 2" xmlns="http://www.w3.org/2000/svg" viewBox="0 0 100 100">
  <defs>
    <style>
      .cls-1 {
        fill: none;
      }

      .cls-2 {
        fill: #333;
      }
    </style>
  </defs>
  <g id="_レイヤー_1-2" data-name="レイヤー 1">
    <g>
      <g>
        <path class="cls-2" d="M59.52,61.95c-4.29,1.3-8.14,1.81-15.67,0s-8.14-3.92-9.04-8.74c-.9-4.82.3-7.84,2.41-10.25,2.11-2.41,6.03-7.23,6.93-6.03s3.32,4.52,3.32,4.52c0,0,8.14.6,9.34.6s4.52-5.12,5.43-5.12,3.62,8.14,4.82,12.06-.6,10.85-7.54,12.96Z"/>
        <path class="cls-2" d="M38.23,45.43c-2.63-.75-11.5-10.52-14.79-12.98s-12-9.04-13.15-10.52,4.6-3.57,7.07-2.09,2.79,5.7,7.07,8.83,13.15,11.5,15.78,12.82c2.63,1.31,2.79,4.11,1.48,4.93s-2.3-.66-3.45-.99Z"/>
        <path class="cls-2" d="M63.04,46.74c-1.07-1.25,4.77-7.56,7.23-9.37s15.12-12.98,16.6-12.82,3.01,3.32-.27,5.13-11.07,11.31-13.7,12.78-6.9,5.92-8.55,6.25-.33-.82-1.31-1.97Z"/>
        <path class="cls-2" d="M84.25,27.35c-5.09.66-7.23-.82-12.33-1.31s-16.11-3.12-24.82-3.62c-8.71-.49-21.2-1.31-24.82-.66s-6.9,2.14-9.2,1.31-1.81-.66,0-1.64,7.56-2.79,12.98-2.79,18.41-.33,22.68.16,13.64,1.64,15.28,2.3,8.05.66,10.52.99c2.47.33,13.48.82,14.79,1.48,1.31.66-1.15,5.26-2.3,5.42s-2.79-1.64-2.79-1.64Z"/>
        <path class="cls-2" d="M10.29,18.97c-2.74-.55-2.79,4.27-2.47,6.08.33,1.81,1.48,12.98,1.48,15.28s-.16,7.72-.16,8.55-.49,9.37-.49,10.19,1.48,4.77,1.31,7.72-1.81,4.6-1.48,7.72,1.81,3.94,2.79,4.27,4.93-1.48,2.96-2.47c-1.97-.99-1.48-1.48-1.64-3.94-.16-2.47.16-9.86-.16-13.81-.33-3.94.82-8.22.49-10.03s-1.15-14.13-1.15-17.59,2.3-9.2,1.31-9.53-1.97-2.3-2.79-2.47Z"/>
        <path class="cls-2" d="M88.19,25.54c4.41-4.63.82,6.74,1.15,9.2s-.33,9.2,0,12.66,0,10.35.82,12.66c.82,2.3,1.81,15.28,2.14,16.93s1.64,4.11-.49,4.44-10.85-1.31-13.48-1.48-12.16-.99-15.28-.66c-3.12.33-9.2.99-14.79.99s-12.16-.82-18.08-.82-10.68-.16-14.96.16c-4.27.33-8.22.99-8.22-.16s3.62-3.45,4.93-3.45,9.86.16,12.49.66c2.63.49,6.25,0,10.52-.16,4.27-.16,12.33-.66,15.61-.16,3.29.49,9.53.99,11.34.82s10.68-.66,12.82-.66,7.89.66,10.35.66,2.79-.66,2.63-1.48.16-11.83-.99-14.79c-1.15-2.96-.99-9.37-.99-12.98s1.97-10.85,1.81-13.15-.67-7.81.66-9.2Z"/>
      </g>
      <rect class="cls-1" width="100" height="100"/>
    </g>
  </g>
</svg>