<?xml version="1.0" encoding="UTF-8"?>
<svg id="_レイヤー_2" data-name="レイヤー 2" xmlns="http://www.w3.org/2000/svg" viewBox="0 0 100 100">
  <defs>
    <style>
      .cls-1 {
        fill: none;
      }

      .cls-2 {
        fill: #fff;
      }

      .cls-3 {
        fill: #333;
      }
    </style>
  </defs>
  <g id="_レイヤー_1-2" data-name="レイヤー 1">
    <g>
      <g>
        <path class="cls-3" d="M59.52,3.04c-4.29-1.3-8.14-1.81-15.67,0-7.54,1.81-8.14,3.92-9.04,8.74-.9,4.82.3,7.84,2.41,10.25,0,0,3.59-2.2,4.49-3.4s5.16-8.68,5.16-8.68h8.56c1.21,0,5.9,7.67,6.8,7.67.64,0,2.18,6.37,3.46,2.6.53-1.56,1.01-3.07,1.36-4.22,1.21-3.92-.6-10.85-7.54-12.96Z"/>
        <path class="cls-3" d="M36.77,17.64c-2.63.75-11.5,10.52-14.79,12.98s-12,9.04-13.15,10.52.99,3.68,3.45,2.21c2.47-1.48,6.41-5.82,10.68-8.94,4.27-3.12,13.15-11.5,15.78-12.82,2.63-1.31,2.79-4.11,1.48-4.93s-2.3.66-3.45.99Z"/>
        <path class="cls-3" d="M63.04,18.25c-1.07,1.25,4.77,7.56,7.23,9.37,2.47,1.81,16.1,16.49,17.58,16.32s3.01-3.32-.27-5.13-12.04-14.81-14.67-16.29c-2.63-1.48-6.9-5.92-8.55-6.25s-.33.82-1.31,1.97Z"/>
        <path class="cls-3" d="M10.29,39.53c-2.74-.55-2.79,4.27-2.47,6.08.33,1.81,1.48,8.3,1.48,10.6s-.16,7.72-.16,8.55-.49,9.37-.49,10.19,1.48,4.77,1.31,7.72-1.81,4.6-1.48,7.72,1.81,3.94,2.79,4.27,4.93-1.48,2.96-2.47c-1.97-.99-1.48-1.48-1.64-3.94-.16-2.47.16-9.86-.16-13.81-.33-3.94.82-8.22.49-10.03s-1.15-9.45-1.15-12.9,2.3-9.2,1.31-9.53-1.97-2.3-2.79-2.47Z"/>
        <path class="cls-3" d="M88.19,41.42c4.41-4.63.82,6.74,1.15,9.2s-.33,9.2,0,12.66,0,10.35.82,12.66c.82,2.3,1.81,15.28,2.14,16.93s1.64,4.11-.49,4.44-10.85-1.31-13.48-1.48-12.16-.99-15.28-.66c-3.12.33-9.2.99-14.79.99s-12.16-.82-18.08-.82-10.68-.16-14.96.16c-4.27.33-8.22.99-8.22-.16s3.62-3.45,4.93-3.45,9.86.16,12.49.66c2.63.49,6.25,0,10.52-.16,4.27-.16,12.33-.66,15.61-.16,3.29.49,9.53.99,11.34.82s10.68-.66,12.82-.66,7.89.66,10.35.66,2.79-.66,2.63-1.48.16-11.83-.99-14.79c-1.15-2.96-.99-9.37-.99-12.98s1.97-10.85,1.81-13.15-.67-7.81.66-9.2Z"/>
      </g>
      <rect class="cls-1" width="100" height="100"/>
      <g>
        <path class="cls-3" d="M51,71.37c1.88-5.73,1.86-9.57,4.47-12.99s13.01-8.81,14.38-9.43-5.21-1.46-9.28-3.9-9.06-3.54-11.01-3.05,0,0-.04-4.01-4.14-7.68-7.08-8.33-10.71,2.55-8.23,8.02,10.98,4.58,9.84,5.56-4.2.92-7.84,3.49c-4.08,2.88-6.82,2.66-9.58,8.02l11.99,12.23,12.38,4.37Z"/>
        <g>
          <path class="cls-3" d="M64.77,48c.65-3.85,1.92-6.82,3.5-8.33s3.87-1.85,3.8-1.53-.98.35-2.26,1.54-1.34,1.09-2.5,3.64c-1.32,2.88-1.28,5.27-1.56,5.54s-1.25.81-.97-.86Z"/>
          <path class="cls-3" d="M64.06,48.07c-1.13-4.5-1.31-8.31-.56-10.68s2.67-3.79,2.75-3.4-.73.83-1.36,2.71-.72,1.8-.64,5.11c.1,3.74,1.2,6.32,1.06,6.76s-.76,1.46-1.25-.49Z"/>
          <path class="cls-3" d="M65.62,47.2c2.48-1.95,4.93-2.91,6.82-2.75s3.68,1.57,3.46,1.72-.87-.47-2.39-.63-1.51-.26-3.66.51c-2.43.87-3.66,2.39-4.01,2.36s-1.3-.37-.22-1.22Z"/>
        </g>
        <path class="cls-2" d="M52.48,45.53c1.2-.53,2.82-.13,3.38,1.79s-1.32,2.04-2.87,1.56c-1.34-.41-1.74-2.81-.51-3.35Z"/>
      </g>
      <path class="cls-3" d="M40.06,12.99s6.84-7.04,8.72-7.04,3.13-1.04,6.05,0,13.27,13.14,13.27,13.14l-2.93,3.05s-7.81-8.81-9.51-10.5-6.33-.99-7.97.65c-.88.88-7.63,8.21-7.63,8.21l-5.75-.94,5.75-6.57Z"/>
      <path class="cls-3" d="M37.36,66.44c-2.65-.69-11.76-10.24-15.1-12.62s-12.21-8.74-13.4-10.2.9-3.71,3.4-2.29c2.5,1.42,6.55,5.66,10.9,8.68s13.42,11.18,16.08,12.43c2.66,1.25,2.89,4.04,1.6,4.89s-2.32-.6-3.47-.9Z"/>
      <path class="cls-3" d="M63.61,65.2c-1.1-1.22,4.58-7.67,7-9.54,2.42-1.87,15.69-16.87,17.17-16.75s3.09,3.25-.15,5.13-11.68,15.1-14.27,16.64-6.76,6.08-8.39,6.45-.35-.81-1.36-1.94Z"/>
      <path class="cls-3" d="M38.62,67s10.28,6.15,12.16,6.1,3.15.97,6.05-.15,16.55-12.27,16.55-12.27l-4.31-1.78s-9.89,6.62-11.54,8.35-5.61.88-6.86.92-10.16-5.16-10.16-5.16l-4.29-1.81,2.41,5.8Z"/>
    </g>
  </g>
</svg>