<?xml version="1.0" encoding="UTF-8"?>
<svg id="_レイヤー_2" data-name="レイヤー 2" xmlns="http://www.w3.org/2000/svg" viewBox="0 0 100 100">
  <defs>
    <style>
      .cls-1 {
        fill: none;
      }

      .cls-2 {
        fill: #fff;
      }

      .cls-3 {
        fill: #333;
      }
    </style>
  </defs>
  <g id="_レイヤー_1-2" data-name="レイヤー 1">
    <g>
      <g>
        <g>
          <path class="cls-3" d="M12.4,65.71c-1.65-.14-6.85.46-8.33.83-1.15.29,4.63,4.77,6.4,5.53.85.37,2.76-6.29,1.93-6.36Z"/>
          <path class="cls-3" d="M22.2,66.8c.44,1.13-.3,3.6-.78,5.08-.95,2.97-2.7,4.51-1.78,4.94,1.46.67,60,17.95,61.14,18.28s3.5-2.75,3.58-4.74.71-5.84-1.1-6.4-57.38-17.66-58.23-17.92c-.53-.16-3.54-1.05-2.84.76Z"/>
        </g>
        <rect class="cls-1" width="100" height="100"/>
      </g>
      <g>
        <g>
          <g>
            <path class="cls-3" d="M47.05,63.63c-1.35-5.38-1.94-9.06-3.8-8.87-5.26.53-7.67-1.4-8.69-.77-2.75,1.73,2.8,5.64.45,8.68-2.2,2.85-5.56.34-5.74-1.09-.33-2.55-4.4-5.73-5.13-6.83-1.07-1.59-4.04-4.52-5.71-8.49-.82-1.95-1.38-5.15-1.7-8.72-.16-1.86-.69-7.89-1.99-13.57s-1.69-9.2-.04-10.87,9.54,4.87,11.22,4.4l8.96-2.53c2.52-.71,2.97-4.47,5.7-7.65s3.45-2.79,5.12-1.14,2.23,4.6,4.17,7.29c1.66,2.3.53,7.32,5.75,7.29,1.99-.01,12.18-8.09,21.41-3.95,7.49,3.36,9.85,10.82,10.43,16.1.86,7.78-.81,16.1-3.57,21.5-1.14,2.22-2.96,3.93-4.54,3.9-1.49-.03-2.78-2.13-2.6-4.12s-1.8-7.82-3.78-8.14c-2.34-.38-5.16.12-10.41,2.04s-9.03,7.91-8.49,10.88c.54,2.97.46,10.66-3.88,10.77s-2.57-3.74-3.16-6.12Z"/>
            <g>
              <g>
                <path class="cls-3" d="M17.73,28.47c-1.38-.16-2.52-.5-4-.54s-3.34.04-4.26.18-.98,1.45.13,1.5,1.94-.18,2.97-.02,1.87.52,3.26.67,2.98.58,3.52-.15-.97-1.57-1.62-1.64Z"/>
                <path class="cls-3" d="M18.62,32.15c-1.44.41-3.97.54-4.8.68s-3.24-.05-3.87.06-.98.87-.88,1.32,1.9.27,2.65.27,2.02-.1,3.09-.16,3.04.08,4.15-.22.67-2.23-.34-1.95Z"/>
              </g>
              <g>
                <path class="cls-3" d="M49.65,16.66c1.03-.94,1.74-1.88,2.92-2.79s2.72-1.93,3.55-2.37,1.65.59.78,1.29-1.68,1-2.41,1.73-1.2,1.52-2.24,2.46-2.07,2.22-2.93,1.95-.14-1.84.34-2.28Z"/>
                <path class="cls-3" d="M51.1,20.17c1.4-.52,3.53-1.9,4.28-2.28s2.59-1.95,3.16-2.23,1.31.12,1.49.55-1.37,1.34-1.98,1.77-1.7,1.11-2.59,1.69-2.41,1.86-3.49,2.27-1.85-1.41-.87-1.77Z"/>
              </g>
            </g>
          </g>
          <g>
            <path class="cls-2" d="M39.82,23.7c-.23-.22-.06-.53.26-.56.68-.07,1.45-1.7,2.38-2.53.88-.78,1.63-.57,2.14-.36.32.14.68.61.78,1.05.14.64-.1,1.54-.47,1.99-.69.86-1.32,1.16-2.74,1.28-1.06.09-1.85-.39-2.34-.86Z"/>
            <path class="cls-2" d="M26.07,27.18c-.13-.55.22-1.04.45-1.25.67-.61,1.58-1.08,2.76-.92.84.12,1.79,1.28,2.13,1.09.31-.17.64-.18.69.16.1.65-.44,1.48-.91,1.82-.89.64-1.89.85-3.29.59-1.05-.2-1.68-.83-1.83-1.49Z"/>
          </g>
        </g>
        <path class="cls-3" d="M61.37,46.51c-.72,3.3.74,8.49,3.61,7.6s.03-5.66,5.38-8.58c5.35-2.93,10.99-3.17,7.47-4.64s-15.35.57-16.46,5.63Z"/>
        <path class="cls-3" d="M73.09,17.33c.45-1.95,5.21-8.91,10.15-7.36,3.91,1.23-.39,3.65-2.18,5.47s-1.28,3.48-1.77,5.27-7.12.63-6.2-3.38Z"/>
      </g>
    </g>
  </g>
</svg>