<?xml version="1.0" encoding="UTF-8"?>
<svg id="_レイヤー_2" data-name="レイヤー 2" xmlns="http://www.w3.org/2000/svg" viewBox="0 0 100 100">
  <defs>
    <style>
      .cls-1 {
        fill: none;
      }

      .cls-2 {
        fill: #fff;
      }

      .cls-3 {
        fill: #333;
      }
    </style>
  </defs>
  <g id="_レイヤー_1-2" data-name="レイヤー 1">
    <g>
      <g>
        <g>
          <path class="cls-3" d="M11.86,79.85c-1.43.32-5.64,2.2-6.77,2.91-.88.55,5.01,2.94,6.7,3.15.81.1.79-6.22.08-6.06Z"/>
          <path class="cls-3" d="M20.58,78.16c.67.88.65,3.27.61,4.72-.08,2.89-1.22,4.72-.31,4.86,1.45.22,64.17.57,65.54.57s3.01-3.79,2.46-5.8-1.1-6.06-3.29-6.06-61.89.25-62.72.25c-.51,0-3.38.05-2.31,1.46Z"/>
        </g>
        <g>
          <g>
            <path class="cls-3" d="M36.53,19.08h9.31c2.62,0,4.07-3.49,7.57-5.82,3.49-2.33,4.07-1.75,5.24.29s0,5.53,2.04,8.15-.58,4.95,7.28,9.31,12.8,10.77,16.59,17.46c3.78,6.69,3.26,17.73,1.73,22.81-2.47,8.2-9.98,7.55-13.65,7.73-5.58.28-20.03.13-26.15.13-3.63,0-6.18-.9-8.48-.22-3.12.92-6.33,2.41-8.65.61-3.31-2.58-2.91-1.66-3.2-5.74s-2.41-7.57-4.16-12.23-3.49-11.06-2.91-15.71,2.33-9.6,3.49-11.06,1.16-6.69,1.46-12.51.87-9.31,2.91-10.48,7.86,7.28,9.6,7.28Z"/>
            <g>
              <g>
                <path class="cls-3" d="M24.72,27.47c-1.38-.19-2.5-.56-3.98-.64s-3.34-.05-4.26.07-1.02,1.42.09,1.5,1.95-.13,2.97.05,1.85.57,3.24.75,2.97.65,3.52-.06-.93-1.59-1.58-1.68Z"/>
                <path class="cls-3" d="M25.53,31.18c-1.45.37-3.98.44-4.81.56s-3.24-.13-3.87-.04-1.01.85-.91,1.3,1.89.32,2.64.33,2.03-.05,3.09-.08,3.03.16,4.16-.12.72-2.21-.29-1.95Z"/>
              </g>
              <g>
                <path class="cls-3" d="M60.49,24.92c1.34-.36,2.41-.87,3.87-1.13,1.46-.26,3.3-.46,4.24-.46s1.19,1.28.09,1.5-1.95.11-2.94.42-1.77.8-3.13,1.15-2.86,1.02-3.5.38.72-1.69,1.35-1.86Z"/>
                <path class="cls-3" d="M60.15,28.69c1.49.19,4.01-.05,4.85-.04s3.2-.53,3.83-.52,1.1.71,1.07,1.18-1.83.55-2.58.66-2.02.2-3.08.3-2.99.53-4.14.4-.99-2.11.05-1.98Z"/>
              </g>
            </g>
          </g>
          <g>
            <path class="cls-2" d="M48.22,28.79c-.16-.27.11-.6.4-.47.92.39,1.85.65,3.09.55.85-.07,1.71-.7,2.04-1.17.2-.28.64-.18.69.16.1.65-.44,1.48-.92,1.82-.89.64-1.89.85-3.29.59-1.05-.2-1.67-.88-2.02-1.47Z"/>
            <path class="cls-2" d="M33.85,28.39c-.08-.3.27-.54.51-.35.78.62,1.6,1.12,2.82,1.37.83.17,1.84-.21,2.29-.58.27-.22.67,0,.62.34-.08.65-.82,1.3-1.37,1.5-1.03.37-2.05.31-3.33-.33-.96-.48-1.37-1.3-1.55-1.96Z"/>
          </g>
        </g>
      </g>
      <rect class="cls-1" width="100" height="100"/>
    </g>
  </g>
</svg>