<?xml version="1.0" encoding="UTF-8"?>
<svg id="_レイヤー_2" data-name="レイヤー 2" xmlns="http://www.w3.org/2000/svg" viewBox="0 0 200 28">
  <defs>
    <style>
      .cls-1 {
        fill: #333;
      }
    </style>
  </defs>
  <g id="_レイヤー_2-2" data-name="レイヤー 2">
    <g>
      <path class="cls-1" d="M6.12,6.61c0-.39-.2-.58-.59-.58H.79c-.51,0-.79-.27-.79-.77V1.24C0,.73.28.46.79.46h16.57c.51,0,.79.27.79.77v4.02c0,.5-.28.77-.79.77h-4.74c-.39,0-.59.19-.59.58v20.15c0,.5-.28.77-.79.77h-4.34c-.51,0-.79-.27-.79-.77V6.61Z"/>
      <path class="cls-1" d="M26.32,19.99v-4.8c0-5.3,3.16-8.01,8.01-8.01s8.05,2.71,8.05,8.01v4.8c0,5.3-3.16,8.01-8.05,8.01s-8.01-2.71-8.01-8.01ZM37.14,19.76v-4.33c0-2.28-.99-3.33-2.8-3.33s-2.76,1.04-2.76,3.33v4.33c0,2.28.99,3.33,2.76,3.33s2.8-1.04,2.8-3.33Z"/>
      <path class="cls-1" d="M54.03,1.24c0-.5.28-.77.79-.77h3.67c.51,0,.79.27.79.77v12.03c0,.62.39.85.87.31l4.89-5.49c.32-.35.63-.43,1.14-.43h4.77c.55,0,.71.46.39.81l-5.29,5.96c-.28.31-.32.7-.12,1.08l6,11.06c.28.54-.04.97-.55.97h-4.1c-.51,0-.87-.19-1.1-.62l-3.87-7.19c-.24-.43-.55-.46-.87-.12l-1.66,1.86c-.36.39-.51.85-.51,1.39v3.91c0,.5-.28.77-.79.77h-3.67c-.51,0-.79-.27-.79-.77V1.24Z"/>
      <path class="cls-1" d="M82.84,4.18V1.24c0-.5.28-.77.79-.77h3.83c.51,0,.79.27.79.77v2.94c0,.5-.28.77-.79.77h-3.83c-.51,0-.79-.27-.79-.77ZM82.92,26.76V8.43c0-.5.28-.77.79-.77h3.67c.51,0,.79.27.79.77v18.33c0,.5-.28.77-.79.77h-3.67c-.51,0-.79-.27-.79-.77Z"/>
      <path class="cls-1" d="M100.52,19.99v-4.8c0-5.3,3.16-8.01,8.01-8.01s8.05,2.71,8.05,8.01v4.8c0,5.3-3.16,8.01-8.05,8.01s-8.01-2.71-8.01-8.01ZM111.33,19.76v-4.33c0-2.28-.99-3.33-2.8-3.33s-2.76,1.04-2.76,3.33v4.33c0,2.28.99,3.33,2.76,3.33s2.8-1.04,2.8-3.33Z"/>
      <path class="cls-1" d="M129.78,18.6v-9.2c0-6.23,3.63-9.4,9.39-9.4,5.01,0,8.37,2.4,9.2,7.19.08.5-.16.85-.67.93l-4.34.73c-.47.08-.75-.15-.87-.66-.43-1.82-1.54-2.63-3.31-2.63-2.21,0-3.47,1.28-3.47,4.06v8.74c0,2.78,1.26,4.06,3.47,4.06,1.78,0,2.88-.81,3.31-2.63.12-.5.39-.73.87-.66l4.34.73c.51.08.75.43.67.93-.79,4.8-4.18,7.19-9.2,7.19-5.76,0-9.39-3.17-9.39-9.4Z"/>
      <path class="cls-1" d="M160.14,19.76v-4.33c0-5.3,3.16-7.77,7.1-7.77,1.46,0,2.41.35,3.08.77.24.15.47.27.67.27.28,0,.43-.19.47-.46.08-.39.36-.58.79-.58h3.16c.51,0,.79.27.79.77v18.33c0,.5-.28.77-.79.77h-3.16c-.43,0-.71-.19-.79-.58-.04-.27-.2-.46-.47-.46-.2,0-.43.12-.67.27-.67.43-1.62.77-3.08.77-3.95,0-7.1-2.48-7.1-7.77ZM170.95,19.53v-3.87c0-2.28-.99-3.33-2.8-3.33s-2.76,1.04-2.76,3.33v3.87c0,2.28.99,3.33,2.76,3.33s2.8-1.04,2.8-3.33Z"/>
      <path class="cls-1" d="M190.57,12.65c0-.39-.2-.58-.59-.58h-1.93c-.51,0-.79-.27-.79-.77v-2.94c0-.5.16-.85.51-1.2l4.26-3.87c.36-.31.79-.5,1.26-.5h1.74c.51,0,.79.27.79.77v3.52c0,.39.2.58.59.58h2.8c.51,0,.79.27.79.77v2.86c0,.5-.28.77-.79.77h-2.8c-.39,0-.59.19-.59.58v6.88c0,2.2.91,2.78,1.42,3.06.51.27,1.11.27,1.82.27.51,0,.79.27.79.73l.12,3.33c0,.5-.28.77-.75.81-.32.04-.55.04-.75.04-4.18,0-7.89-2.24-7.89-8.01v-7.12Z"/>
    </g>
  </g>
</svg>