<?xml version="1.0" encoding="UTF-8"?>
<svg id="_レイヤー_2" data-name="レイヤー 2" xmlns="http://www.w3.org/2000/svg" viewBox="0 0 190 290">
  <defs>
    <style>
      .cls-1 {
        fill: none;
      }

      .cls-2 {
        fill: #333;
      }
    </style>
  </defs>
  <g id="_レイヤー_1-2" data-name="レイヤー 1">
    <g>
      <g>
        <path class="cls-2" d="M76.1,109.04s-.93,2.79-.93,4.66,3.03-1.16,4.42-1.4.93,1.16,1.16,2.1,3.73-1.63,3.73-1.63c0,0-.23,4.89,1.4,3.73,1.63-1.16,4.42-.47,4.42-.47,0,0,2.33,2.56,2.79,1.86s2.79-3.49,2.79-3.49c0,0,1.63,2.56,2.79,3.03s.47-.93.93-2.56,2.1.23,3.03,1.4,1.86-2.79,1.86-2.79c0,0,2.1.7,3.26,1.63s1.86,0,1.86-3.03,1.16-2.79,2.56-.7,3.26,2.56,3.49.23c.23-2.33,1.22-3.52,1.45-4.69s-19.55-5.33-33.78-4.06c-5.11.46-13.78,4.33-13.78,4.33,0,0,3.26.93,3.26,3.03s3.26-1.16,3.26-1.16Z"/>
        <path class="cls-2" d="M130.36,125.34c-3.96-.93-7.69-3.96-9.55-6.05-1.86-2.1-4.07-4.52-5.12-7.69-.7-2.1-1.4-1.63-1.63-2.79-.23-1.16-3.03-3.73-3.03-1.4s3.49,9.32,5.59,11.18c2.1,1.86,6.05,5.12,6.05,5.82s-8.15,3.96-12.58,4.42c-4.42.47-14.44,2.1-21.19,1.16s-23.34-5.45-22.59-5.82c.47-.23,1.86-1.63,6.29-4.66,4.42-3.03,6.05-7.45,5.82-9.08-.23-1.63-.7-5.36-2.33-1.4-1.63,3.96-8.62,9.32-10.95,10.95-2.33,1.63-9.32,4.19-10.71,4.42-1.4.23,4.66,4.42,8.62,6.29,3.96,1.86,15.6,5.59,24.92,5.82,9.32.23,20.26.23,26.32-1.16,6.05-1.4,16.53-5.36,17.47-6.29s2.56-2.79-1.4-3.73ZM130.44,127.32c-.57.48-8.7,4.4-11.47,5.16s-12.62,1.82-14.72,2.01c-2.1.19-15,.1-16.72.1s-7.84-.38-10.13-.96-8.41-2.96-11.18-3.92c-2.77-.96-6.21-2.87-6.21-2.87-.38-.29,3.82-1.91,4.11-2.01s4.3,2.58,9.27,3.92c4.97,1.34,16.25,3.44,20.16,3.54,3.92.1,12.33-.57,14.34-.76,2.01-.19,11.95-2.48,13.57-3.54,1.62-1.05,3.25-2.1,3.63-2.2.38-.1,5.93,1.05,5.35,1.53Z"/>
        <path class="cls-2" d="M131.76,129.06c2.78-.59,3.14-1.48,6.54,1.2s8.95,8.59,12.35,11.81c3.4,3.22,5.73,7.87,6.26,10.02s1.61,9.13,3.22,12.17,2.68,9.31,2.86,11.99c.18,2.68.54,7.87,1.07,11.1s2.51,16.46,2.86,18.61c.36,2.15-.89,12.71-2.68,14.67s-7.16,5.01-9.66,6.8c-2.51,1.79-7.7,5.37-9.48,5.37s-3.94-.36-4.83,0-1.61,1.43-.18,2.86,4.65,1.07,6.08,1.07,7.87-5.01,11.45-6.98,8.23-5.73,9.31-7.7c1.07-1.97,1.97-5.91,2.51-8.77s-.18-8.59-.72-12.88c-.54-4.29-.36-8.95-.72-11.81s-1.07-14.14-2.86-18.25-3.04-8.41-3.94-11.45c-.89-3.04-2.68-13.42-6.08-17.72-3.4-4.29-6.44-6.62-10.02-9.48s-6.62-5.37-9.48-6.08c-2.86-.72-5.25-.28-5.25-.28l1.4,3.73Z"/>
        <path class="cls-2" d="M57.59,127.23c-3.22.36-13.78,6.8-15.75,9.13-1.97,2.33-9.31,10.56-12.35,14.5-3.04,3.94-6.08,7.7-6.8,14.5-.72,6.8-4.12,14.5-4.12,18.79s1.61,4.29,1.25,6.08-1.25,3.04-1.43,4.47.72,17.9,1.79,20.4c1.07,2.51,8.77,11.1,11.1,13.06,2.33,1.97,9.48,3.76,10.56,5.19,1.07,1.43,1.07,3.58-.54,3.94s-5.73-.36-9.84-3.94-13.78-10.92-14.67-15.21c-.89-4.29-2.68-10.02-2.51-15.21s1.43-9.84,1.25-12.71-.18-5.73.36-8.77c.54-3.04,3.94-10.92,4.29-16.46s2.15-8.95,3.04-11.27,6.62-9.13,9.31-12.35c2.68-3.22,8.41-8.95,12.17-11.1,3.76-2.15,10.02-5.91,11.99-5.91s.89,2.86.89,2.86Z"/>
        <path class="cls-2" d="M45.6,160.51c.66,2.97-1.79,14.32-1.97,24.52-.18,10.2-2.33,30.6-3.58,35.08-1.25,4.47.18,20.4.72,22.73s4.83,12.88,4.65,14.5-1.79,3.4-.36,3.94,12.35,5.19,15.57,5.37,12.35-1.43,16.46-.89c4.12.54,17.36,3.76,23.62,3.94,6.26.18,24.34-3.94,29.89-5.55s9.48-4.65,9.84-5.73.54-6.44.54-9.66.72-8.95.72-11.27-.54-12.71-.89-16.28c-.36-3.58-2.86-29.35-3.4-30.24s-1.07-6.98-.72-10.92c.36-3.94-1.61-12.53-1.61-14.14s.72-3.4,1.97-2.68,2.68,4.29,2.68,6.8-1.43,12.53-.89,13.24,1.25-1.97,1.61.54-1.07,8.59-.36,10.92c.72,2.33,1.25,12.35,2.15,15.93.89,3.58,1.43,10.92,1.79,15.39.36,4.47.72,14.14.72,16.46s-1.43,4.65-1.07,6.62.72,9.31,0,11.1-6.44,5.91-9.66,6.8-20.76,4.83-25.77,5.19c-5.01.36-12.17-.18-15.39-1.07s-7.87-1.07-13.06-2.68-9.31-.72-11.1-.18-6.44,1.97-10.74,1.25c-4.29-.72-8.77-4.29-11.45-4.65s-5.19-1.97-5.19-4.47.89-5.01-.72-8.05c-1.61-3.04-2.51-8.05-3.4-14.32-.89-6.26-.36-21.47.72-26.31,1.07-4.83,1.79-15.93,2.15-17.72s1.07-16.64,1.25-21.12.72-9.31,1.43-10.92c.72-1.61,2.51-3.04,2.86-1.43Z"/>
        <path class="cls-2" d="M135.08,265.2c0,1.79-.54,18.19-1.43,18.79-2.15,1.43-10.2,1.79-14.14,2.51-3.94.72-23.98-.18-32.39,0-8.41.18-30.42-.72-32.03-1.07s-2.33-3.4-2.68-5.37-.54-13.96-.54-13.96c0,0,9.48,1.43,12.88,1.43s8.23-1.25,11.27-.54,12.53,2.33,16.11,2.51c3.58.18,12.53,1.25,16.82.72s13.78-1.79,18.07-2.68,8.05-2.33,8.05-2.33Z"/>
        <g>
          <g>
            <path class="cls-2" d="M152.68,94.32c5.22-10.7,3.7-22.17,2.51-33.45-2.58-5.21-1.83-12.05-6.37-17.2-.98-1.17-.98-6.39-1.5-8.32-3.44-4.03-1.08-11.81-3.03-17.18-3.83-10.51-10.47.45-20.02,6.86-11.13-.96-30.33-3.73-40.29-8.68-2.52-4.34-5.61-14.19-12.03-13.03-16.81,5.85-14.68,28.38-22.21,41.06-9.94,9.67-9.25,27.68-11.84,40.79-1.48,5.42.09,11.5,1.93,17.28.68,1.77,3.01,4.08,4.45,4.26,3.35.65,8.48,1.84,12.01,1.55,8.45-.69,15.08-1.84,20.06-2.36,20.04-2.08,23.07,1.32,34.17,3.94,25.51,6.03,33.88,12.77,42.16-15.53Z"/>
            <path class="cls-2" d="M147.73,76.08c2.47-2.18,6.18-1.33,12.37-3.26,5.05-1.58,11.28-.59,13.19.11,3.68,1.35,2.74,3.63.2,3.69s-7.98-1.44-12.17.31c-4.19,1.75-1.57.66-7.96,1.45s-6.72-1.34-5.63-2.3Z"/>
            <path class="cls-2" d="M146.5,84.89c2.81.23,7.94,1.96,10.59,3.49,2.66,1.53,7.64,2.46,9.96,5.01,2.32,2.55,3.08,2.68,3.2,4.19s-1.03,3.32-3.63,1.01-4.69-4.58-9.1-6.25c-4.42-1.67-6.11-2.6-9.55-3.64-4.84-1.48-2.99-3.94-1.48-3.81Z"/>
            <path class="cls-2" d="M49.39,63.78c-2-2.62-5.8-2.52-11.5-5.64-4.64-2.54-10.95-2.8-12.95-2.49-3.88.6-3.39,3.02-.92,3.57s8.1.16,11.87,2.71,1.41.96,7.52,2.99c6.11,2.03,6.85.02,5.97-1.14Z"/>
            <path class="cls-2" d="M48.87,72.66c-2.8-.33-8.16.35-11.07,1.33-2.9.97-7.97.9-10.75,2.94s-3.54,2.02-3.95,3.48.36,3.46,3.36,1.71c2.99-1.75,5.49-3.56,10.15-4.33,4.66-.77,6.5-1.34,10.07-1.69,5.03-.49,3.7-3.27,2.2-3.45Z"/>
          </g>
          <g>
            <g>
              <path class="cls-2" d="M117.76,30.08c.31-3.81.71-11.6-1.96-13.28s-1.14-2.51-.07-1.95c4.77,2.51,4.73,5.24,4.97,10.85.24,5.61-3.04,5.58-2.94,4.37Z"/>
              <path class="cls-2" d="M120.74,31.54c-.18-4.59,1.92-11.99,4-14.49s5.87-2.92,6.25-1.92-1.16-.1-3.24,2.41-3.48,5.3-3.95,8.18-.26,6.05-.17,7.76-2.81.01-2.89-1.94Z"/>
            </g>
            <g>
              <path class="cls-2" d="M88.85,19.86c1.64-3.52,3.19-4.68,5.33-5.09,2.14-.41,3.09-.04,3.94-.11s.36-.99-1.03-1.1-4.12-1.06-6.22.51c-2.09,1.57-4.97,4.1-5.16,6.41-.19,2.31.17,3.07,1.32,2.73s.97-1.52,1.82-3.34Z"/>
              <path class="cls-2" d="M84.93,19.69c.68-1.65,1.14-7.03-.04-8.15s-1.89-.88-2.55-1.37.68-1.4,1.88-.72,2.77,2.12,3.05,3.89-.23,7.98-1.48,9.48-1.22-2.28-.87-3.12Z"/>
            </g>
          </g>
        </g>
      </g>
      <rect class="cls-1" width="190" height="290"/>
    </g>
  </g>
</svg>