<?xml version="1.0" encoding="UTF-8"?>
<svg id="_レイヤー_2" data-name="レイヤー 2" xmlns="http://www.w3.org/2000/svg" viewBox="0 0 240 198">
  <defs>
    <style>
      .cls-1 {
        fill: #fff;
      }

      .cls-2 {
        fill: #333;
      }
    </style>
  </defs>
  <g id="_レイヤー_2-2" data-name="レイヤー 2">
    <g>
      <g>
        <g>
          <path class="cls-2" d="M155.57,89.25c-1.82-2.36-3.25-4.02-3.73-4.31-1.48-.93-11.65-2.94-13.68-2.76s-14.03-.29-15.33-.29-8.15-.19-11.11-.19-15.19-.93-18.71-.37-12.04.19-14.82,0c-2.78-.19-12.49-.37-15.46-.19,0,0-6.48,4.64-7.22,7.06s-.69,4.73-4.4,5.29-6.42-2.21-6.42-2.21c-.56,1.67-3.63,3.49-6.78,4.04-3.15.56-5.29-2.11-5.29-2.11,0,0,.23,1.42-4.63,1.49-5.48.08-7.68-5.62-8.05-8.01-.46-2.99-.73-7.17.18-10.84.81-3.25,3.23-7.14,3.23-7.14,0-2.6,1.11-9.84,1.48-13.74s1.85-8.73,2.04-11.88,1.85-12.07,2.22-15.41,3.52-16.34,4.26-18.01,2.96-7.8,5.37-8.91,3.52-.93,4.82.19,4.45,6.31,5.19,6.87,5,4.83,5,4.83c0,0,2.59.93,3.33.74s7.78-.19,10.37-.37,13.71.37,16.12,0,7.22.37,10.37.19c3.15-.19,6.11.93,6.11.93,0,0,1.85-2.23,3.15-3.34s5.37-5.2,7.04-6.5,6.48-3.53,7.41-3.34,3.7.37,4.45,1.86,1.48,5.94,2.22,8.17,1.3,5.94,1.85,7.61,5,12.25,5.74,15.04,3.7,9.47,4.26,12.25c.56,2.79,1.67,8.54,1.67,8.54,0,0,5.93,1.67,7.59,2.04,1.67.37,15.56,4.27,18.15,5.57s8.89,2.41,14.82,7.24c1.8,1.47,4.3,4.76,7.02,8.9,0,0,1.75,5.05-2.82,11.04-4.57,5.99-16.18,7.4-20.4,6.35s-6.64-6.3-6.64-6.3Z"/>
          <g>
            <path class="cls-2" d="M48.23,93.76c.69,1.73,1.85,3.34,2.78,3.53s2.59-6.68,1.3-6.87-4.82,1.49-4.08,3.34Z"/>
            <path class="cls-2" d="M35.79,93.41c.36,2.5,1.3,5.38,2.22,5.94s3.89-6.13,3.33-6.68-5.74-.56-5.56.74Z"/>
            <path class="cls-2" d="M24.28,93.59c.55,1.39,1.48,5.2,2.22,5.76s4.08-6.87,3.15-6.87-5.74.19-5.37,1.11Z"/>
          </g>
          <g>
            <g>
              <path class="cls-2" d="M28.72,50.51c-3.89-.93-9.45-1.11-15.37-1.3-4.48-.14-13.73,1.16-13.34,2.6.56,2.04,3.89.93,7.97.74s10.73.31,14.82.74c6.15.65,10.64,3.78,13.71,4.46,4.58,1.01,4.08-2.79,2.59-3.9s-8.39-2.87-10.37-3.34Z"/>
              <path class="cls-2" d="M32.59,57.74c-3.99-.31-9.51.37-15.39,1.12-4.45.56-13.38,3.29-12.77,4.65.87,1.93,3.99.31,7.98-.51,4-.82,10.65-1.37,14.75-1.58,6.17-.32,11.1,2.07,14.23,2.26,4.68.28,3.59-3.39,1.96-4.26s-8.73-1.52-10.77-1.68Z"/>
            </g>
            <g>
              <path class="cls-2" d="M136.81,43.45c3.89-.93,9.45-1.11,15.37-1.3,4.48-.14,13.73,1.16,13.34,2.6-.56,2.04-3.89.93-7.97.74-4.08-.19-10.73.31-14.82.74-6.15.65-10.64,3.78-13.71,4.46-4.58,1.01-4.08-2.79-2.59-3.9s8.39-2.87,10.37-3.34Z"/>
              <path class="cls-2" d="M132.95,50.68c3.99-.31,9.51.37,15.39,1.12,4.45.56,13.38,3.29,12.77,4.65-.87,1.93-3.99.31-7.98-.51s-10.65-1.37-14.75-1.58c-6.17-.32-11.1,2.07-14.23,2.26-4.68.28-3.59-3.39-1.96-4.26s8.73-1.52,10.77-1.68Z"/>
            </g>
          </g>
          <g>
            <g>
              <path class="cls-2" d="M97.39,25.52c-.94-4.02-2.79-12.34-7.06-15.89-4.27-3.55-8.58-4.73-8.99-4.15s1.42,1.35,2.79,2.22c3.8,2.44,5.73,4.5,8.23,9.74s1.55,9.45,1.65,11.52c.1,2.06,3.86-1.4,3.39-3.43Z"/>
              <path class="cls-2" d="M94.86,15.23c.33-4.26,2.22-8.73,5.56-10.03s4.26-.74,2.78.19-3.33,2.6-4.26,5.01-2.04,5.94-1.11,8.91c.93,2.97.56,3.9-.74,4.27s-2.41-5.94-2.22-8.36Z"/>
            </g>
            <g>
              <path class="cls-2" d="M59.84,18.76c.3-3.93,2.41-8.73,4.82-9.66s4.63-.37,3.52.56-2.04.19-3.89,2.97c-1.85,2.79-2.41,5.2-1.85,7.43s-2.78,1.11-2.59-1.3Z"/>
              <path class="cls-2" d="M51.88,14.12c.81-5.3.56-9.47-1.48-10.58-2.04-1.11,1.3-1.3,2.78-.19s2.22,3.53,2.41,6.13c.19,2.6-1.48,7.61-2.78,8.91s-1.3-1.86-.93-4.27Z"/>
            </g>
          </g>
        </g>
        <g>
          <path class="cls-2" d="M235.2,183.64c-1.29-.29-4.58-2.4-4.8-3.5s-.87-2.19-1.74-1.75-5.48.59-6.98.22c-2.51-.62-2.6-2.48-1.09-4.37.87-1.09,2.62-1.97,4.36-1.97s4.36-.22,4.36-.22c0,0,1.96-3.28,3.27-3.93s3.49-1.97,5.01-.66,1.53,2.4,1.31,3.5-2.18,3.06-2.18,3.06c0,0,1.31,2.19,2.18,3.28s1.09,2.4,1.09,3.71-2.83,3.06-4.8,2.62Z"/>
          <path class="cls-2" d="M110.11,116.42c.58-.9,3.42-2.36,4.55-2.33s2.35-.25,2.12-.98.1-2.44.81-3.48c1.19-1.74,3.7-2.46,5.21-1,.87.84,1.33,2.29.93,3.57s-.28,2.9-.28,2.9c0,0,2.69,1.95,3.03,3.04s1.13,3.56-.51,4.45-3.14.51-4.16.16-2.5-2.16-2.5-2.16c0,0-2.45.57-3.72,1.02s-2.61.37-3.9.14-2.46-3.96-1.58-5.34Z"/>
          <path class="cls-2" d="M163.16,191.88c.22-2.17,4.14-4.37,7.63-4.15,3.49.22,6.32.66,8.07,2.84s.65,4.15-1.09,5.68-3.92,1.75-7.19,1.75-7.85-1.75-7.41-6.12Z"/>
          <path class="cls-2" d="M170.67,163.62c.17-2.19,3.16-4.61,5.83-4.59,2.66.02,4.83.29,6.16,2.37s.5,4.11-.83,5.74-3,1.98-5.49,2.17-5.99-1.29-5.66-5.69Z"/>
          <path class="cls-2" d="M213.34,186.75c.29-2.37,3.07-4.99,5.41-4.97,2.33.02,4.21.31,5.24,2.57s.17,4.45-1.11,6.22-2.76,2.14-4.96,2.34c-2.2.21-5.17-1.4-4.59-6.16Z"/>
          <path class="cls-2" d="M195.58,178.25c-.46.77-4.48,2.01-5.56,1.7s-2.31-2.17-2.01-3.25,2.31-2.94,2.31-2.94c0,0-2.47-1.7-2.93-2.78s.46-3.25,1.23-3.71,4.63.62,5.25,1.39l.62.77s2.62-2.01,3.55-2.48,2.78-.62,3.7.31,1.54,2.94,1.54,3.71-2.01,2.63-2.01,2.63c0,0,2.93,2.32,3.09,3.09s-.31,1.86-1.54,2.48-2.01,1.39-3.24,1.08-4.01-2.01-4.01-2.01Z"/>
          <path class="cls-2" d="M129.22,164.46c-.17,1.05-.42,6.13.47,6.24s5.44-3.97,5.44-3.97c0,0,4.39,2.17,5.48,1.41s-.79-4.94-.79-4.94c0,0,4.25-3.58,3.78-4.63s-5.99-.84-5.99-.84c0,0-3.21-4.35-4.45-4.14s-3.56,5.55-3.56,5.55c0,0-5.38.76-5.99,1.75s5.59,3.57,5.59,3.57Z"/>
        </g>
        <g>
          <path class="cls-2" d="M186.22,89.28c-2.46,11.08-9.6,23.24-13.81,31.25-3.93,7.47-8.69,9.89-10.03,11.71-1.34,1.82-7.66,4.68-10.53,3.59s-1.68-5.28-1.68-5.28c0,0-4.51,2.48-6.95-.84s-1.35-6.16-1.35-6.16l-2.32-2.14c-2.32-2.14-3.34-4.25-3.17-6.75s4.58-7.81,4.58-7.81c0,0,7.06-11.67,7.59-12.73,2.34-4.74,4.28-14.28,5.18-20.48,0,0,1.82-5.27,5.59-7.46s8.74-2.11,13.43.21c4.69,2.32,7.44,6.5,9.57,8.38,5.52,4.88,3.92,14.5,3.92,14.5Z"/>
          <g>
            <path class="cls-2" d="M137.9,117.57c-1.76.94-3.72,3.36-4.52,4.13s7.31,1.69,7.99.26-2.28-5.03-3.47-4.39Z"/>
            <path class="cls-2" d="M141.79,125.7c-1.14,1.92-3.18,2.58-3.34,4.02s6.54.63,7.21-.02-2.79-5.82-3.87-4Z"/>
            <path class="cls-2" d="M149.58,133.61c-1.43,1.2-3.45,2.83-3.86,3.75s7.09-1.2,7.9-2.24-2.05-3.18-4.04-1.51Z"/>
            <path class="cls-2" d="M139.88,107.88c-2.35.55-5.25.71-5.92,1.88s5.21,2.18,5.99,2.46.99-4.58-.06-4.33Z"/>
          </g>
        </g>
      </g>
      <g>
        <path class="cls-1" d="M92.05,38.92c.19-1.06,5.19-1.46,8.52-1.86s10-.27,12.41-.27,6.3.93,6.48,2.13-5,2.53-6.11,2.66-9.45,0-12.78.13c-3.33.13-8.89-.67-8.52-2.79Z"/>
        <path class="cls-1" d="M71.02,39.07c.1-1.21-5.89-2-9.79-2-3.9,0-17.2,1.03-17.28,2.51-.09,1.47,2.42,2.77,6.7,3.01s12.03-.55,15.74-.67,4.53-1.64,4.63-2.85Z"/>
      </g>
    </g>
  </g>
</svg>