<?xml version="1.0" encoding="UTF-8"?>
<svg id="_レイヤー_2" data-name="レイヤー 2" xmlns="http://www.w3.org/2000/svg" viewBox="0 0 100 100">
  <defs>
    <style>
      .cls-1 {
        fill: none;
      }

      .cls-2 {
        fill: #fff;
      }

      .cls-3 {
        fill: #333;
      }
    </style>
  </defs>
  <g id="_レイヤー_1-2" data-name="レイヤー 1">
    <g>
      <g>
        <path class="cls-3" d="M95.2,21.04c-1.45-.22-4.7-1.33-5.07-1.57s-1.69-3.74-2.29-5.67-1.21-.36-1.45.24-1.21,5.07-1.57,5.43-3.98.84-5.19.96-1.81,1.69-.72,2.17,5.07,1.33,5.43,1.57,1.45,4.82,1.81,6.15.96,1.33,1.45,1.33,1.57-6.75,1.81-7.12,5.07-1.45,6.15-1.57,1.31-1.68-.36-1.93Z"/>
        <path class="cls-3" d="M69.06,11.74c-.55-.11-1.9-.11-2.46-.34s-.9-2.8-1.23-3.36-1.23-.22-1.23.34-.9,2.91-.9,2.91c0,0-2.69.11-3.13.45s-.45,1.01.11,1.23,2.8,1.01,2.8,1.01c0,0,.9,2.24.9,2.8s1.34.34,1.57-.45,1.01-2.46,1.01-2.46c0,0,2.8-1.01,3.13-1.12s0-.9-.56-1.01Z"/>
        <path class="cls-3" d="M27.33,33.75c-.75-.15-2.6-.15-3.36-.46s-1.22-3.82-1.68-4.58-1.68-.31-1.68.46-1.22,3.97-1.22,3.97c0,0-3.66.15-4.27.61s-.61,1.37.15,1.68,3.82,1.37,3.82,1.37c0,0,1.22,3.05,1.22,3.82s1.83.46,2.14-.61,1.37-3.36,1.37-3.36c0,0,3.82-1.37,4.27-1.53s0-1.22-.76-1.37Z"/>
        <path class="cls-3" d="M25.34,17.19c.93-.62.87-2.84-.62-3.09s-2.23.87-2.23,1.85,1.73,1.98,2.84,1.24Z"/>
        <path class="cls-3" d="M91.14,44.9c.93-.62.87-2.84-.62-3.09s-2.23.87-2.23,1.85,1.73,1.98,2.84,1.24Z"/>
        <path class="cls-3" d="M12.04,27.12c1.66-1.1,1.54-5.06-1.1-5.49s-3.96,1.54-3.96,3.3,3.08,3.52,5.06,2.2Z"/>
        <path class="cls-3" d="M33.72,20.65c.93-.93-.15-2.6-1.37-2.75s-2.29,1.22-1.98,2.29,3.05.76,3.36.46Z"/>
      </g>
      <path class="cls-3" d="M7.69,90.26s-.26-1.88.84-2.37c5.97-2.69,26-9.63,27.7-10.22,2-.7,56.62-.53,57.08-.23.05.04.51,2.09-.13,2.43-4.01,2.16-19.49,8.29-25.11,10.61-1.03.43-2.94.14-3.14.16-1.46.14-57.66.11-57.24-.38Z"/>
      <path class="cls-2" d="M49.28,86.71c-3.02.26-5.45.35-9.03-.05-3.58-.4-3.04-.84-1.56-1.85s3.43-1.63,5.64-2.12,6.46-1.48,6.48-1.23.03.95.03.95c0,0,4.44.15,5.14.15s4.74-1.05,5.26-1.05-1.28,1.7-2.21,2.52-4.86,2.26-9.75,2.68Z"/>
      <path class="cls-3" d="M66.92,90.68s28.45-.85,28.8-1.15-.03-2.08-.18-2.48-19.63-1.95-19.63-1.95c0,0-8.62-.42-8.66.27s-.33,5.31-.33,5.31Z"/>
      <rect class="cls-1" width="100" height="100"/>
      <g>
        <path class="cls-2" d="M59.84,36.73c.1-.55-.7-1.05-.96-.55-1.26,2.35-2.35,3.61-4.5,4.17-2.74.71-3.7-1.07-4.54-1.66-.51-.36-1.14-.35-1.02.26.23,1.15,1.64,2.22,2.65,2.5,1.89.53,3.69.28,5.88-1.02,1.64-.97,2.27-2.49,2.5-3.69Z"/>
        <path class="cls-2" d="M69.48,40.12c.38-.41-.07-.87-.56-.6-1.94,1.06-2.47,1.34-5.46.59-2.01-.51-2.83-3.03-3.23-3.98-.24-.57-1.05-.56-1.27.02-.42,1.1.21,2.75.91,3.52,1.32,1.45,2.98,2.2,5.53,2.26,1.91.05,3.25-.91,4.08-1.8Z"/>
      </g>
      <path class="cls-2" d="M54.01,32.96c.52-.53,0-2.1-1.18-1.7s-.9,1.5-.6,1.85,1.34.31,1.78-.15Z"/>
      <path class="cls-2" d="M67.79,33.21c.46-.59-.3-1.11-.61-1.31s-1.31,0-1.41.71.81,2.17,2.02.61Z"/>
      <g>
        <g>
          <path class="cls-3" d="M23.3,76.74c.68,4.05,4.5,8.11,7.2,9.01,2.7.9,6.75-.23,11.48,0,4.73.23,10.81.23,15.76.23s8.11.9,10.81-.9c2.7-1.8,2.93-5.4,3.15-8.56.23-3.15,2.85-12.47,4.2-16.07.48-1.27.95-2.72,1.35-4.21.84-1.34,1.3-5.57.66-9.43-.58-3.11-1.69-6.1-2.47-7.07-.2-.25-.36-.66-.48-1.18.45-.01.86-.03,1.18-.02.82.03,1.81.07,2.39.06s1.97.1,2.04-.26-.22-.94-.71-1.01-2.35.12-2.99.03c-.39-.06-1.27-.1-2.15-.19-.06-.5-.11-1.06-.15-1.66.23-.04.47-.08.7-.11,1.08-.14,1.72-.44,2.51-.58.79-.14,1.43.02,2.29-.04.86-.06.79-1.07.07-1.16-.72-.09-2.15-.11-3.3-.05-.88.05-1.6.22-2.37.37-.06-1.21-.11-2.53-.17-3.9-.23-4.5-.68-7.2-2.25-8.11s-6.08,5.63-7.43,5.63h-7.2c-2.03,0-3.15-2.7-5.85-4.5-2.7-1.8-3.15-1.35-4.05.23-.9,1.58,0,4.28-1.58,6.3-.57.73-.67,1.43-.85,2.18-.63-.21-1.25-.43-2-.56-1.13-.2-2.56-.36-3.28-.36-.72,0-.92.99-.07,1.16s1.51.09,2.27.32c.76.24,1.37.62,2.42.89.04,0,.07.02.11.03-.3.53-.76,1.1-1.5,1.72-.17,0-.32-.01-.43,0-.65.01-2.48-.41-2.96-.4s-.85.55-.82.91c.03.36,1.42.43,2,.51.2.03.45.06.72.08-.37.23-.77.47-1.22.72-.84.47-1.64.97-2.4,1.49-1.62,1.37-3.34,2.63-4.64,3.99-2.34,2.46-4.21,5.21-5.8,8.02-2.93,5.18-4.88,22.38-4.2,26.43Z"/>
          <g>
            <path class="cls-2" d="M59.84,37.26c.1-.55-.7-1.05-.96-.55-1.26,2.35-2.35,3.61-4.5,4.17-2.74.71-3.7-1.07-4.54-1.66-.51-.36-1.14-.35-1.02.26.23,1.15,1.64,2.22,2.65,2.5,1.89.53,3.69.28,5.88-1.02,1.64-.97,2.27-2.49,2.5-3.69Z"/>
            <path class="cls-2" d="M69.48,40.65c.38-.41-.07-.87-.56-.6-1.94,1.06-2.47,1.34-5.46.59-2.01-.51-2.83-3.03-3.23-3.98-.24-.57-1.05-.56-1.27.02-.42,1.1.21,2.75.91,3.52,1.32,1.45,2.98,2.2,5.53,2.26,1.91.05,3.25-.91,4.08-1.8Z"/>
          </g>
        </g>
        <path class="cls-2" d="M54.38,40.87s2.05,4.94,4.63,5.77,5.34-4.79,5.34-4.79c0,0-4.79-2.36-4.51-2.66s-.74-1.4-.74-1.4l-2.12,2.49-2.6.59Z"/>
      </g>
    </g>
  </g>
</svg>