<?xml version="1.0" encoding="UTF-8"?>
<svg id="_レイヤー_2" data-name="レイヤー 2" xmlns="http://www.w3.org/2000/svg" viewBox="0 0 100 100">
  <defs>
    <style>
      .cls-1 {
        fill: none;
      }

      .cls-2 {
        fill: #333;
      }
    </style>
  </defs>
  <g id="_レイヤー_1-2" data-name="レイヤー 1">
    <g>
      <g>
        <g>
          <path class="cls-2" d="M55.24,40.63c-.26-.34.06-.83.47-.7,1.31.39,2.6.61,4.28.3,1.14-.21,2.22-1.2,2.61-1.89.23-.42.84-.34.96.12.23.87-.38,2.07-.98,2.61-1.12,1-2.44,1.43-4.39,1.28-1.46-.12-2.4-.95-2.96-1.7Z"/>
          <path class="cls-2" d="M35.66,42.18c-.15-.4.29-.78.65-.55,1.15.73,2.34,1.29,4.04,1.45,1.16.11,2.47-.56,3.02-1.12.33-.34.9-.1.9.37-.01.9-.93,1.89-1.65,2.24-1.35.66-2.74.72-4.57.04-1.37-.51-2.05-1.56-2.39-2.44Z"/>
        </g>
        <rect class="cls-1" width="100" height="100"/>
      </g>
      <path class="cls-2" d="M93.44,42.69c-2.09-11.05-14.56-23.97-20.61-27.49-9.26-5.38-23.04-4.36-32.27-4s-20.96,8.88-25.23,14.92-8.17,18.47-7.82,24.16c.36,5.68,1.78,16.7,4.62,22.03,2.84,5.33,9.99,11.91,14.21,14.57,1.41.89,5.05,2.41,5.05,2.41.96-.04.17-9.81,0-14.05-.17-4.24.8-12.46,2.03-14.69.43-.79-4.03-1.05-6.74-2.48-3.04-1.6-6.1-4-7.59-5.79-1.53-1.84-1.99-2.93-.8-5.35.63-1.28,7.83-10.06,8.4-11.22.58-1.17.73-5.4,1.89-7.76,1.17-2.37,3.61,2.42,4.61,3.28,1.01.87,10.3-1.01,13.4-1.26,3.16-.26,7.44-.74,9.27-.72,1.84.02,3.35-7.93,4.82-8.63,1.48-.71,4.97,9.03,4.97,9.03,0,0,5.69,5.93,10.24,8.15,1.61,1.26-.82,8.33-5.45,13.47-3.04,3.15-5.39,4.37-8.12,5.48-3.22,1.32-5.03,1.82-5.03,1.82,0,0,1.22,1.3,1.93,3.21,1.23-1.03,2.5-2.11,3.82-3.11,4.38-3.32,9.09.2,8.61,1.65-.51,1.52-3.29-2.15-5.7,1.27-.71,1-1.25,2.2-2.02,3.58,1.43-.03,3.14-.3,5.06-.92,4.3-1.39,4.83-6.01,6.96-9.62,2.3-3.22,6.49-2.68,8.61-2.15,2.15,2.28-4.05,1.01-4.56,5.7-1.12,5.43-2.21,11.71-7.74,14.17-5.38,2.39-10.73,2.03-11.85,2.12-1.11.09.26,14.61,1.05,15.35,0,0,4.49-.1,6.39-.48,1.02-.2,3.86-1.22,6.26-2.12,2.8-1.05,6.08-3.25,8.06-5.5,3.96-4.51,5.62-7.77,7.39-11.48,2-4.18,5.18-20.61,3.88-27.49Z"/>
    </g>
  </g>
</svg>