<?xml version="1.0" encoding="UTF-8"?>
<svg id="_レイヤー_2" data-name="レイヤー 2" xmlns="http://www.w3.org/2000/svg" viewBox="0 0 100 100">
  <defs>
    <style>
      .cls-1 {
        fill: none;
      }

      .cls-2 {
        fill: #333;
      }
    </style>
  </defs>
  <g id="_レイヤー_1-2" data-name="レイヤー 1">
    <g>
      <g>
        <g>
          <path class="cls-2" d="M53.67,53.98c-.17-.29.12-.64.43-.51,1,.42,2,.7,3.34.6.92-.07,1.85-.76,2.21-1.27.22-.31.69-.2.75.17.11.7-.47,1.6-.99,1.97-.97.69-2.04.92-3.56.63-1.14-.22-1.81-.95-2.18-1.59Z"/>
          <path class="cls-2" d="M39.76,52.96c-.09-.33.29-.59.55-.38.84.67,1.73,1.21,3.05,1.48.9.18,1.99-.23,2.47-.62.29-.24.72,0,.67.37-.09.71-.89,1.41-1.49,1.63-1.12.4-2.22.33-3.6-.35-1.04-.51-1.48-1.4-1.67-2.12Z"/>
        </g>
        <path class="cls-2" d="M86.72,37.13c-1.79-1.27-8.03-8.88-11.9-13.64-3.87-4.76-16.66-10.47-18.45-12.06-1.79-1.59-4.17-1.59-5.06-3.17-.89-1.59-7.44,1.59-9.22,2.86-1.79,1.27-9.22,7.93-11.9,10.15-2.68,2.22-10.12,9.2-12.79,11.74s-8.03,8.82-8.33,11.1c-.3,2.22.6,2.54.6,3.49s.03,18.99.92,26.29c.89,7.3.3,13.96,1.79,15.86,1.49,1.9,5.95,0,10.12,0s3.87,0,5.65-1.27c1.79-1.27-3.57-5.08-3.57-9.2s.86-14.86,3.54-18.04c.75-.89,1.45-1.52,2.08-2.04-.8-.03-1.65-.06-2.18-.11-.66-.06-2.25-.06-2.3-.5s.33-1.15.88-1.19c.56-.04,2.66.36,3.4.31.39-.03,1.17-.01,2.03-.03.53-.53.91-1.1,1.08-1.97-.37-.1-.76-.21-1.14-.29-1.21-.27-1.92-.7-2.8-.95-.88-.25-1.63-.1-2.6-.26-.97-.16-.81-1.41.01-1.46.82-.05,2.45.05,3.75.23,1.17.16,2.06.52,3.1.8.46-1.81,1.29-2.73,1.53-4.27.3-1.9,2.08-4.12,2.98-5.71.89-1.59,3.87.95,5.06,2.22s3.87,1.59,5.95,1.59,6.25.32,7.14-.95c.89-1.27,5.36-2.54,5.95-1.27s2.38,7.3,2.38,7.3c0,0,.37.44,1.04,1.2,1.18-.25,2.14-.66,3.42-.8,1.3-.15,2.93-.21,3.76-.15.82.06.96,1.32-.01,1.46s-1.72-.03-2.61.2-1.61.65-2.82.89c-.08.02-.16.03-.24.05.63.68,1.36,1.45,2.16,2.28,0,0,0,0,.01,0,.74.07,2.85-.29,3.4-.24s.92.76.86,1.21c-.06.44-1.65.41-2.31.45-.15.01-.33.02-.53.03.14.13.27.27.41.4,3.87,3.81,3.9,12.96,4.19,17.72.3,4.76-1.79,10.47-3.27,13.33-.74,1.41,4.76.95,7.14,1.27,2.38.32,3.87.32,6.25-.32,2.38-.63,4.57-3.49,4.57-5.71s1.16-19.62,1.16-24.07v-19.99c0-1.27-2.49-3.49-4.28-4.76Z"/>
      </g>
      <rect class="cls-1" width="100" height="100"/>
    </g>
  </g>
</svg>