<?xml version="1.0" encoding="UTF-8"?>
<svg id="_レイヤー_2" data-name="レイヤー 2" xmlns="http://www.w3.org/2000/svg" viewBox="0 0 100 100">
  <defs>
    <style>
      .cls-1 {
        fill: none;
      }

      .cls-2 {
        fill: #fff;
      }

      .cls-3 {
        fill: #333;
      }
    </style>
  </defs>
  <g id="_レイヤー_1-2" data-name="レイヤー 1">
    <g>
      <g>
        <g>
          <path class="cls-3" d="M90.89,24.45c-2.59-.39-8.4-2.37-9.04-2.8s-3.01-6.67-4.09-10.12c-1.08-3.44-2.15-.65-2.58.43s-2.15,9.04-2.8,9.69-7.1,1.51-9.26,1.72c-2.15.22-3.23,3.01-1.29,3.87s9.04,2.37,9.69,2.8,2.58,8.61,3.23,10.98,1.72,2.37,2.58,2.37,2.8-12.05,3.23-12.7,9.04-2.58,10.98-2.8c1.94-.22,2.33-3-.65-3.44Z"/>
          <path class="cls-3" d="M78.86,50.92c-1.06-.21-3.66-.22-4.74-.65s-1.72-5.38-2.37-6.46-2.37-.43-2.37.65c0,1.08-1.72,5.6-1.72,5.6,0,0-5.17.22-6.03.86s-.86,1.94.22,2.37,5.38,1.94,5.38,1.94c0,0,1.72,4.31,1.72,5.38,0,1.08,2.58.65,3.01-.86s1.94-4.74,1.94-4.74c0,0,5.38-1.94,6.03-2.15s0-1.72-1.08-1.94Z"/>
          <path class="cls-3" d="M55.48,29.04c1.31-.88,1.22-4.01-.87-4.36s-3.14,1.22-3.14,2.61,2.44,2.79,4.01,1.74Z"/>
          <path class="cls-3" d="M89.04,44.85c1.31-.88,1.22-4.01-.87-4.36s-3.14,1.22-3.14,2.61,2.44,2.79,4.01,1.74Z"/>
          <path class="cls-3" d="M54.55,17.03c2.33-1.56,2.17-7.13-1.55-7.75s-5.58,2.17-5.58,4.65,4.34,4.96,7.13,3.1Z"/>
          <path class="cls-3" d="M41.87,21.75c1.31-1.31-.22-3.66-1.94-3.87-1.72-.22-3.23,1.72-2.8,3.23s4.31,1.08,4.74.65Z"/>
        </g>
        <path class="cls-3" d="M6.62,86.64s-2.09-42.89-1.75-45.39,55.58-1.27,56.75-.2,4.25,46.41,3.13,46.93-57.4.4-58.13-1.33Z"/>
        <path class="cls-2" d="M39.75,74.05c-2.4.92-4.61,1.24-9.16-.19-4.53-1.43-5.05-2.99-5.97-6.57s-.45-5.78.58-7.54,2.92-5.27,3.54-4.38c.62.9,2.29,3.37,2.29,3.37,0,0,4.79.53,5.5.54s2.22-3.74,2.75-3.74,2.78,6.06,3.81,8.97.54,8.04-3.35,9.53Z"/>
        <path class="cls-3" d="M66.92,88.21s28.45-.85,28.8-1.15-.03-2.08-.18-2.48-19.63-1.95-19.63-1.95c0,0-8.62-.42-8.66.27s-.33,5.31-.33,5.31Z"/>
      </g>
      <rect class="cls-1" width="100" height="100"/>
    </g>
  </g>
</svg>