<?xml version="1.0" encoding="UTF-8"?>
<svg id="_レイヤー_2" data-name="レイヤー 2" xmlns="http://www.w3.org/2000/svg" viewBox="0 0 100 100">
  <defs>
    <style>
      .cls-1 {
        fill: none;
      }

      .cls-2 {
        fill: #fff;
      }

      .cls-3 {
        fill: #333;
      }
    </style>
  </defs>
  <g id="_レイヤー_1-2" data-name="レイヤー 1">
    <g>
      <g>
        <path class="cls-3" d="M86.72,37.13c-1.79-1.27-8.03-8.88-11.9-13.64-3.87-4.76-16.66-10.47-18.45-12.06-1.79-1.59-4.17-1.59-5.06-3.17-.89-1.59-7.44,1.59-9.22,2.86-1.79,1.27-9.22,7.93-11.9,10.15-2.68,2.22-10.12,9.2-12.79,11.74s-8.03,8.82-8.33,11.1c-.3,2.22.6,2.54.6,3.49s.03,18.99.92,26.29c.89,7.3.3,13.96,1.79,15.86,1.49,1.9,5.95,0,10.12,0s3.87,0,5.65-1.27c1.79-1.27-2.85-1.87-3.57-9.2-.94-9.59,3.7-19.57,5.02-24.4.7-2.54.85-9.06,1.48-9.59-.8-.03-2.53-.14-3.07-.19-.66-.06-2.25-.06-2.3-.5s.33-1.15.88-1.19c.56-.04,2.66.36,3.4.31.39-.03,1.17-.01,2.03-.03.53-.53.91-1.1,1.08-1.97-.37-.1-.76-.21-1.14-.29-1.21-.27-1.92-.7-2.8-.95-.88-.25-1.63-.1-2.6-.26-.97-.16-.81-1.41.01-1.46.82-.05,2.45.05,3.75.23,1.17.16,2.06.52,3.1.8.46-1.81,1.29-2.73,1.53-4.27.3-1.9,2.08-4.12,2.98-5.71.89-1.59,3.87.95,5.06,2.22,1.19,1.27,3.87,1.59,5.95,1.59s6.25.32,7.14-.95c.89-1.27,5.36-2.54,5.95-1.27.6,1.27,2.38,7.3,2.38,7.3,0,0,.37.44,1.04,1.2,1.18-.25,2.14-.66,3.42-.8,1.3-.15,2.93-.21,3.76-.15.82.06.96,1.32-.01,1.46s-1.72-.03-2.61.2c-.89.23-1.61.65-2.82.89-.08.02-.42.45-.5.46.63.68.44,1.58,1.25,2.42,0,0,1.18-.55,1.19-.55,1.15-.15,2.85-.29,3.4-.24s.92.76.86,1.21c-.06.44-1.65.41-2.31.45-.15.01-2.87,1.22-3.07,1.22.14.13,1.09,7.01,2.57,11.46,1.08,3.25,4.52,12.86,4.57,19.46.03,4.77-1.79,10.47-3.27,13.33-.74,1.41,4.76.95,7.14,1.27,2.38.32,3.87.32,6.25-.32,2.38-.63,4.57-3.49,4.57-5.71s1.16-33.61,1.16-38.05v-6c0-1.27-2.49-3.49-4.28-4.76Z"/>
        <rect class="cls-1" width="100" height="100"/>
      </g>
      <path class="cls-3" d="M57.96,45.76c-1.03.93-2.72.13-3.3-1.58-.49-1.46-.05-4.23,1.87-3.97,2.38.32,2.95,4.17,1.43,5.55Z"/>
      <path class="cls-3" d="M43.66,45.99c-1.35.31-2.44-1.22-2.11-2.99.28-1.52,2.02-3.72,3.57-2.55,1.91,1.44.53,5.07-1.47,5.54Z"/>
      <path class="cls-2" d="M53.69,28.95c-.46-.23,2.6-4.03,3.02-3.94s2.18,1.17,2.01,1.76-4.53,2.43-5.03,2.18Z"/>
      <path class="cls-2" d="M50.2,28.48c-.39.17-1.34-5.96-1.34-5.96,0,0,3.69-.5,3.69.17s-1.76,5.54-2.35,5.79Z"/>
      <path class="cls-2" d="M47.11,30.59s-4.11-2.27-4.36-2.52,2.43-2.85,2.77-2.43,2.1,4.45,1.59,4.95Z"/>
    </g>
  </g>
</svg>