<?xml version="1.0" encoding="UTF-8"?>
<svg id="_レイヤー_2" data-name="レイヤー 2" xmlns="http://www.w3.org/2000/svg" viewBox="0 0 90 105">
  <defs>
    <style>
      .cls-1 {
        fill: none;
      }

      .cls-2 {
        fill: #fff;
      }

      .cls-3 {
        fill: #333;
      }
    </style>
  </defs>
  <g id="_レイヤー_1-2" data-name="レイヤー 1">
    <g>
      <g>
        <g>
          <g>
            <g>
              <g>
                <path class="cls-3" d="M30.32,48.92c3.77-.98,10.23-1.3,16.77-1.13,2.07.05,5.28,1.01,8.17.38,1.43-.31,3.25-.96,4.41-1.95.46-.39,1.63-1.26,1.96-1.97.9-2.35,1.75-4.68,1.86-5.61.66-5.5-.03-12.92-3.9-17.16-2.81-5.43-1.38-14.69-8.19-17.52-2.63-.64-4.14,3.36-5.29,5.09-4.24,1.81-12.25,2.48-16.87,2.61-3.79-2.89-6.27-7.58-8.11-3.32-.94,2.17-.15,5.44-1.67,7.03-.26.79-.39,2.95-.82,3.4-2,2.02-1.86,4.86-3.05,6.96-.77,4.63-1.67,9.34.23,13.89,2.12,6.83,6.06,11.48,14.51,9.29Z"/>
                <path class="cls-3" d="M18.3,32.21c-.97-.96-2.52-.7-5.04-1.65-2.05-.78-4.65-.52-5.46-.27-1.56.47-1.22,1.44-.17,1.52s3.33-.4,5.02.43.63.31,3.26.79c2.62.48,2.81-.39,2.38-.81Z"/>
                <path class="cls-3" d="M18.6,35.89c-1.17.03-3.33.62-4.47,1.18s-3.22.83-4.24,1.83-1.34,1.03-1.42,1.66.35,1.4,1.47.51,2.05-1.78,3.92-2.36,2.59-.93,4.04-1.27c2.04-.49,1.33-1.55.71-1.54Z"/>
                <path class="cls-3" d="M59.26,29.52c.89-1.04,2.46-.9,4.89-2.05,1.98-.94,4.59-.89,5.42-.72,1.59.34,1.33,1.33.29,1.5s-3.36-.13-4.97.83-.61.36-3.18,1.05-2.83-.16-2.44-.62Z"/>
                <path class="cls-3" d="M59.26,33.2c1.17-.07,3.37.34,4.54.82s3.28.57,4.37,1.48,1.42.92,1.55,1.54-.23,1.42-1.43.63c-1.2-.8-2.18-1.61-4.09-2.04s-2.66-.71-4.12-.94c-2.07-.33-1.45-1.44-.82-1.48Z"/>
              </g>
              <g>
                <g>
                  <path class="cls-3" d="M31.81,13.92c-.04-1.58-.01-4.81,1.13-5.44s.53-1.01.08-.8c-2.03.92-2.08,2.05-2.32,4.37s1.12,2.38,1.11,1.88Z"/>
                  <path class="cls-3" d="M30.55,14.45c.18-1.9-.5-5-1.3-6.09s-2.35-1.35-2.54-.94.48-.01,1.28,1.07,1.31,2.28,1.44,3.48-.04,2.51-.12,3.21,1.16.07,1.24-.73Z"/>
                </g>
                <g>
                  <path class="cls-3" d="M44.01,10.4c-.59-1.5-1.21-2.01-2.08-2.23s-1.28-.09-1.63-.14-.13-.42.45-.43,1.73-.34,2.56.36,1.95,1.82,1.98,2.78-.14,1.26-.61,1.09-.36-.65-.67-1.43Z"/>
                  <path class="cls-3" d="M45.64,10.42c-.24-.7-.3-2.94.21-3.37s.8-.32,1.09-.51-.25-.59-.76-.34-1.2.81-1.36,1.53-.1,3.3.38,3.95.56-.91.43-1.27Z"/>
                </g>
              </g>
            </g>
            <g>
              <path class="cls-2" d="M51.93,34.06c.05,2.01-1.34,2.72-2.26,3.5s-3.59.68-5.02.05-3.77-3.17-4.26-3.83-.89-1.07-1.2-.81-.36,1.18.86,2.91,3.64,3.93,5.84,4.29c2.21.36,5.1-.14,6.39-1.6s1.96-2.91,2.01-3.91-.86-2.66-1.56-2.73-.85.44-.81,2.12Z"/>
              <path class="cls-2" d="M37.94,33.26c-.3.96-1.64,3.4-3.88,4.64s-3.9.94-5.01.47c-1.11-.47-2.63-1.44-2.97-2.61s.5-1.94-.06-2.18-1.04-.56-1.49-.04-1.04,2.21-.21,3.7,1.89,3.14,4.1,3.67,5.49.02,6.65-.93,2.93-2.01,3.44-3.45c.51-1.44,1.17-3.05.69-3.54s-.96-.65-1.25.29Z"/>
              <path class="cls-2" d="M37.71,33.35c-.38-.44.13-1.09.67-1.44s1.48-.46,1.82.45-.82,1.7-1.21,1.71-.71-.06-1.28-.72Z"/>
              <path class="cls-2" d="M26.76,25.94c-.71-.34-1.07-1.73-.3-2.26s1.65.21,1.75.96.05,2.01-1.46,1.3Z"/>
              <path class="cls-2" d="M50.06,24.9c-.73-.36-.5-1.25-.21-2.01s1.23-1.12,1.88-.13-.56,2.7-1.67,2.14Z"/>
            </g>
          </g>
          <path class="cls-3" d="M71.17,50.37c1.65-3.71,8.86-18.61,6.93-20.78s-5.74-2.54-8.7.96c-4.28,5.06-10.54,12.52-10.54,12.52,0,0-18.22,2.22-20.29,2.51s-14.87,1.18-14.87,1.18c0,0-11.1-9.71-15.14-10.77-4.05-1.06-6.62,1.96-2.95,9.58,3.66,7.62,11.59,13.96,11.59,13.96,0,0,9.98,33.07,14.97,39.11s11.95-.53,12.99-4.17,2.19-6.14,2.19-6.14c0,0,1.65,3.9,4.39,6.12s7.8,2.33,10.86-.78,2.93-11.96,3.09-14.83.68-16.43,1.66-19.25,2.41-6.03,3.83-9.23Z"/>
          <path class="cls-2" d="M53.93,46.38c-1.01.73-4.13,2.03-6.65,3.02-2.28.9-4.76,1.14-7.17.69-3.83-.7-9.44-1.78-10.37-2.19l-8.61-3.82-2-.49s3.49,5,6.74,7.39c10.05,7.4,16.7.8,16.7.8,0,0,4.13,4.84,9.69,1.12,3.43-2.3,8.02-11.3,8.02-11.3,0,0-4.24,3.25-6.35,4.78Z"/>
          <path class="cls-3" d="M68.41,50.55c.87,1.09,7.23,11.65,8.92,14.14s5.13,6.56,7.27,7.79,1.7,2.31.96,2.45-.64-1.69-5.54,3.54-7.53,6-10.49,6.38-7.01.32-8.71,1.14-2.69-1.26-1-1.71,4.32-1.59,7.45-1.59,6.88-1.25,9.03-3.33,4.54-5.25,5.11-5.59-1.92-1.77-4.15-4.48-3.53-5.73-6.2-10.3c-2.68-4.57-4.63-5.79-5.58-8.42s1.4-1.94,2.94-.01Z"/>
          <path class="cls-3" d="M14.04,55.26c-.49,2-1.66,18.85-3.41,23.53s-2.24,6.86-2.09,7.42,2.89.91,5.82,1.08,3.18,2.21,8.32,2.51,9.86-1.81,10.44-2.33-2.41-2.9-3.74-2.06-3.43,2.01-7.08,1.42c-3.65-.58-8.12-2.68-9.78-2.6s.81-4.37,1.12-6.56,1.26-12.07,1.83-15.53,1.25-8.76,1.25-8.76l-2.69,1.87Z"/>
        </g>
        <g>
          <path class="cls-2" d="M33.67,61.04c-1.61-2.33-7.81-2.67-7.43,1.21.03.31.15.56.31.74-.36,1.88-.57,3.78-.65,5.71-.07,1.69,2.57,1.44,2.64-.25.03-.68.08-1.36.16-2.04.18.08.4.13.64.12,1.39-.07,2.92-.33,3.97-1.33,1.16-1.1,1.28-2.85.37-4.16ZM31.63,63.08c-.24.78-1.93.78-2.54.82,0,0-.02,0-.03,0,.12-.66.26-1.31.42-1.96,0,0,0-.01,0-.02.26-.03.56,0,.79.03.49.07,1.57.43,1.35,1.13Z"/>
          <path class="cls-2" d="M43.06,67.68c-.94-2.13-1.89-4.25-2.83-6.38-.34-.76-1.54-.88-2.07-.29-2,2.19-3.49,4.69-4.45,7.49-.55,1.61,1.99,2.34,2.54.73.05-.14.1-.27.15-.41.22.15.46.25.74.25.32,0,.71-.14.94-.38.46-.49.58-1.39.02-1.87-.19-.16-.39-.3-.6-.41.38-.69.79-1.35,1.26-1.98.67,1.52,1.35,3.03,2.02,4.55.69,1.55,2.99.24,2.3-1.31Z"/>
          <path class="cls-2" d="M50.45,63.66c-1.64-.45-2.37,2.09-.73,2.54.5.14.02.74-.25.84-.85.33-1.8-.52-2.17-1.2-.91-1.67,0-3.59,1.78-4.12,1.62-.49.96-3.05-.68-2.56-2.11.64-3.77,2.34-4.06,4.58-.28,2.14.8,4.47,2.75,5.48,1.74.9,4.22.67,5.15-1.26.8-1.65.04-3.79-1.78-4.29Z"/>
          <path class="cls-2" d="M60.56,64.51c-.98.22-1.95.43-2.93.65-.15-.43-.28-.86-.41-1.29.07-.01.15-.03.22-.05.53-.17,1.07-.35,1.6-.52.66-.22.97-1.15.67-1.75-.35-.7-1.04-.9-1.75-.67-.44.15-.89.29-1.33.44-.06-.31-.11-.63-.15-.94l2.55-.38c1.68-.25,1.29-2.87-.4-2.62l-4.94.75c-1.6.24-1.32,2.63.17,2.63.31,2.23.89,4.4,1.71,6.5.2.51.86.89,1.41.77l3.97-.88c1.65-.37,1.27-2.99-.4-2.62Z"/>
          <path class="cls-2" d="M38.65,73.42c-2.31-.1-4.62-.2-6.93-.3-1.69-.07-1.95,2.56-.25,2.63.81.03,1.62.07,2.43.1-.01,1.36-.03,2.72-.04,4.08-.02,1.69,2.62,1.96,2.63.25l.04-4.21c.62.03,1.25.05,1.87.08,1.69.07,1.95-2.56.25-2.63Z"/>
          <path class="cls-2" d="M46.05,73.44c-1.62-.39-3.44.47-4.19,1.94-.95,1.85-.25,3.99,1.06,5.45.46.51,1.04.52,1.5.25.06.03.12.06.19.08,4.35,1.48,5.59-6.72,1.44-7.73ZM45.34,78.62c-.3-.1-.57-.1-.8-.02-.55-.92-.83-2.5.58-2.62,1.35-.12.89,2.87.21,2.64Z"/>
          <path class="cls-2" d="M54.88,70.37c-1.81-.56-3.85.55-4.47,2.32-.76,2.18.41,4.6,1.09,6.65.53,1.6,3.11,1.01,2.57-.61-.12-.36-.37-.94-.62-1.59,1.45-.18,2.86-.81,3.51-2.19.82-1.78-.22-4-2.08-4.57ZM54.49,73.98c-.31.48-1.09.58-1.72.58-.04-.58.07-1.07.4-1.39.62-.58,1.87-.06,1.32.81Z"/>
        </g>
      </g>
      <rect class="cls-1" width="90" height="105"/>
    </g>
  </g>
</svg>