<?xml version="1.0" encoding="UTF-8"?>
<svg id="_レイヤー_2" data-name="レイヤー 2" xmlns="http://www.w3.org/2000/svg" viewBox="0 0 190 290">
  <defs>
    <style>
      .cls-1 {
        fill: none;
      }

      .cls-2 {
        fill: #fff;
      }

      .cls-3 {
        fill: #333;
      }
    </style>
  </defs>
  <g id="_レイヤー_1-2" data-name="レイヤー 1">
    <g>
      <g>
        <g>
          <g>
            <g>
              <path class="cls-3" d="M61.89,115.43c7.95-2.57,21.77-4.08,35.83-4.54,4.46-.14,11.44,1.49,17.57-.22,3.04-.85,6.86-2.47,9.21-4.74.93-.9,3.34-2.9,3.95-4.47,1.64-5.15,3.16-10.26,3.28-12.26.73-11.87-1.68-27.7-10.53-36.3-6.7-11.28-4.8-31.33-19.76-36.53-5.71-1.03-8.46,7.73-10.7,11.59-8.86,4.41-25.95,6.87-35.85,7.73-8.5-5.71-14.41-15.46-17.81-6.11-1.74,4.78.36,11.69-2.7,15.28-.46,1.72-.46,6.37-1.33,7.4-4.04,4.58-3.37,10.66-5.67,15.3-1.06,10.03-2.41,20.24,2.23,29.77,5.41,14.39,14.45,23.86,32.29,18.09Z"/>
              <path class="cls-3" d="M34.01,81.11c-2.2-1.94-5.5-1.18-11.01-2.9-4.49-1.4-10.04-.52-11.73.1-3.28,1.2-2.44,3.23-.18,3.28,2.26.05,7.1-1.28,10.83.28,3.73,1.56,1.4.59,7.08,1.29s5.98-1.19,5.01-2.04Z"/>
              <path class="cls-3" d="M35.1,88.95c-2.5.2-7.06,1.74-9.43,3.1-2.37,1.36-6.8,2.19-8.87,4.46-2.07,2.27-2.74,2.38-2.85,3.73s.92,2.96,3.23.9c2.31-2.05,4.17-4.07,8.1-5.56s5.44-2.31,8.49-3.24c4.31-1.31,2.66-3.5,1.32-3.39Z"/>
              <path class="cls-3" d="M121.51,70.17c1.78-2.33,5.16-2.25,10.23-5.02,4.13-2.26,9.74-2.49,11.52-2.22,3.45.53,3.02,2.69.82,3.18s-7.21.15-10.56,2.41c-3.35,2.27-1.26.85-6.7,2.66-5.44,1.81-6.1.02-5.31-1.01Z"/>
              <path class="cls-3" d="M121.97,78.07c2.49-.29,7.26.32,9.85,1.18,2.58.87,7.09.8,9.56,2.62s3.15,1.79,3.52,3.1-.32,3.08-2.99,1.52c-2.66-1.56-4.88-3.17-9.03-3.85s-5.78-1.19-8.96-1.5c-4.48-.44-3.29-2.91-1.96-3.07Z"/>
            </g>
            <g>
              <g>
                <path class="cls-3" d="M60.68,40.18c-.28-3.39-.64-10.32,1.75-11.81,2.38-1.49,1.01-2.23.07-1.73-4.25,2.23-4.21,4.67-4.43,9.65s2.7,4.97,2.61,3.89Z"/>
                <path class="cls-3" d="M58.03,41.48c.16-4.09-1.71-10.67-3.56-12.89s-5.22-2.6-5.56-1.71,1.04-.08,2.89,2.14,3.1,4.72,3.52,7.28c.42,2.56.23,5.38.15,6.9-.08,1.52,2.5.01,2.57-1.72Z"/>
              </g>
              <g>
                <path class="cls-3" d="M86.4,31.09c-1.46-3.13-2.84-4.17-4.74-4.53-1.9-.36-2.75-.03-3.51-.1s-.32-.88.92-.98,3.67-.95,5.53.45c1.86,1.4,4.42,3.65,4.59,5.71s-.15,2.73-1.18,2.43-.86-1.35-1.62-2.97Z"/>
                <path class="cls-3" d="M89.88,30.94c-.61-1.47-1.01-6.26.03-7.25,1.04-.99,1.68-.78,2.27-1.22s-.6-1.24-1.68-.64-2.47,1.88-2.71,3.46.21,7.1,1.31,8.43,1.08-2.03.77-2.78Z"/>
              </g>
            </g>
          </g>
          <g>
            <path class="cls-2" d="M106.36,80.84c.37,4.31-2.53,6-4.41,7.79-1.88,1.79-7.62,1.92-10.76.74s-8.49-6.32-9.62-7.67-2.05-2.18-2.67-1.58-.62,2.59,2.22,6.14,8.3,7.97,13.07,8.46c4.78.49,10.91-.94,13.51-4.23s3.84-6.48,3.83-8.65c-.02-2.17-2.17-5.6-3.7-5.65s-1.77,1.06-1.46,4.65Z"/>
            <path class="cls-2" d="M76.26,80.89c-.52,2.1-3.08,7.5-7.73,10.43s-8.24,2.52-10.68,1.64c-2.44-.88-5.82-2.76-6.71-5.21-.89-2.46.82-4.23-.4-4.67-1.22-.44-2.29-1.07-3.21.09s-1.95,4.87,0,7.96c1.96,3.09,4.45,6.49,9.26,7.34,4.81.85,11.78-.65,14.13-2.84s6.03-4.68,6.94-7.83c.91-3.15,2.13-6.69,1.03-7.68-1.1-.99-2.14-1.26-2.64.77Z"/>
            <path class="cls-2" d="M75.77,81.11c-.86-.89.14-2.36,1.25-3.18s3.11-1.17,3.95.75c.84,1.92-1.54,3.75-2.38,3.82s-1.53-.05-2.83-1.39Z"/>
            <path class="cls-2" d="M51.35,66.59c-1.57-.63-2.51-3.58-.92-4.8,1.59-1.22,3.57.24,3.88,1.84s.37,4.31-2.96,2.97Z"/>
            <path class="cls-2" d="M101.19,61.42c-1.6-.69-1.24-2.61-.71-4.28.53-1.67,2.49-2.56,4.01-.53s-.85,5.86-3.31,4.81Z"/>
          </g>
        </g>
        <g>
          <g>
            <path class="cls-3" d="M64.17,125.15c-1.39-1.86-1.63-2.85,2.24-1.02,3.87,1.83,10.18,2.44,18.13,2.44s18.13-4.48,19.35-5.91,2.44-.61,2.04.61c-.41,1.22-12.02,9.37-19.14,10.79-7.13,1.43-17.31-2.65-19.35-3.87s-2.04-1.43-3.26-3.05Z"/>
            <path class="cls-3" d="M88.41,141.03c-2.73.78-5.5,0-6.31-2.85s2.85-4.89,5.3-4.68c2.44.2,3.05,2.65,3.26,4.28s-.81,2.85-2.24,3.26Z"/>
          </g>
          <g>
            <g>
              <path class="cls-3" d="M49.09,119.92c0,2.96,0,14.58-.97,19.44-.97,4.86-3.89,29.65-5.35,33.05-1.46,3.4-6.8,20.9-9.24,35.97-2.43,15.07-.49,23.33,1.46,29.16,1.94,5.83,7.29,13.61,11.67,16.53,4.37,2.92,10.69,1.46,12.15,2.43s1.46,4.86-1.46,4.86-10.21.49-16.04-2.92-13.12-17.01-14.1-25.28c-.97-8.26-.49-16.53.49-25.28.97-8.75,7.78-31.59,9.24-35,1.46-3.4,5.83-21.39,5.83-24.79s.97-18.47,1.94-22.85-1.46-11.67,1.94-12.64c3.4-.97,2.43,4.86,2.43,7.29Z"/>
              <path class="cls-3" d="M53,241.04c.05,5.02,1.33,17.05,4.36,20.33,3.02,3.28,5.97.92,7.15.62s1.48,2.36,5.02,2.36,5.61-1.77,5.61-1.77c0,0-.59,1.48,2.95,1.48s3.25-8.26,2.66-17.71c-.59-9.44-2.36-19.77-2.36-24.2s-3.54-3.54-3.84-1.18c-.3,2.36-.59,9.15-.3,14.46.3,5.31,2.95,16.23,2.95,18.59s-3.39,5.22-5.42,6.03-7.13-2.04-8.35-1.83-4.28-.81-5.5-4.48-1.83-11.81-1.83-14.26-3.13-1.99-3.09,1.55Z"/>
              <path class="cls-3" d="M106.8,259.24c3.7.37,8.35-1.43,12.83-2.85,4.48-1.43,8.15-5.91,11.2-9.98,3.05-4.07,3.67-9.57,4.28-15.27s1.02-22,.2-41.34-9.16-45.82-12.02-52.75c-2.85-6.92-8.15-24.44-8.55-26.07s2.04-3.05,3.05-.61c1.02,2.44,4.48,14.46,6.52,20.37,2.04,5.91,4.68,12.02,6.52,16.09s3.67,16.9,4.48,20.16,1.83,6.92,2.24,9.98c.41,3.05,1.63,16.09,1.63,20.37s2.44,22,1.02,25.86c-1.43,3.87-1.63,12.22-2.24,14.26s-4.28,13.85-5.91,16.29c-1.63,2.44-7.54,5.3-11.2,7.13-3.67,1.83-8.55,2.24-12.63,2.04s-4.07-1.22-3.67-2.04.2-1.83,2.24-1.63Z"/>
              <path class="cls-3" d="M87.25,258.63c-.59-3.24.61-26.88,1.02-30.14s-1.22-7.33.2-8.35,4.07-.61,4.07,1.22.61,9.78.2,12.83c-.41,3.05-.41,13.44-1.02,17.31s-1.43,7.54.41,8.96,6.92,1.63,9.16.61,3.67-1.83,6.11-5.3,3.46-11.61,4.28-13.44,2.24-2.44,2.85,0-1.02,10.18-1.83,12.02-1.63,6.31-4.48,8.55c-2.85,2.24-8.96,2.85-8.96,1.83s-.81,1.63-4.07,1.22c-3.26-.41-3.46-2.65-3.46-2.65,0,0-.61,2.44-2.44,2.04s-1.63-4.48-2.04-6.72Z"/>
              <path class="cls-3" d="M80.53,259.45c1.8.28,6.92.41,7.74.61s1.83,2.24.2,2.44c-1.63.2-8.76,0-9.98-.2s-.61-3.26,2.04-2.85Z"/>
            </g>
            <path class="cls-3" d="M132.06,253.74c9.87,1.41,26.03-.11,38.15-2.13,12.12-2.02,11.39-10.98,9.87-15.02-1.51-4.04-11.89-13.76-19.97-6.69-8.08,7.07-6.06,12.12-3.53,13.63s7.07-1.28,4.12-2.6c-1.5-.67-1.76-2.27.37-5.01,2.13-2.74,7.25-4,9.99-2.17s6.46,3.07,4.85,9.53c-.84,3.34-4.87,3.96-8.52,5.18s-13.93,1.47-19.71,1.77c-5.78.3-14.31-1.83-14.31-1.83l3.35-7s5.26.44,8.61.54c3.72.11,9.02.43,10.7,0,2.73-.71.48-2.36.48-2.36,0,0,.99-1.48-7.84-1.48s-12.54-3.01-12.54-3.01l-6.42,16.97,2.35,1.68Z"/>
          </g>
        </g>
      </g>
      <rect class="cls-1" width="190" height="290"/>
    </g>
  </g>
</svg>