<?xml version="1.0" encoding="UTF-8"?>
<svg id="_レイヤー_2" data-name="レイヤー 2" xmlns="http://www.w3.org/2000/svg" viewBox="0 0 190 290">
  <defs>
    <style>
      .cls-1 {
        fill: none;
      }

      .cls-2 {
        fill: #fff;
      }

      .cls-3 {
        fill: #333;
      }
    </style>
  </defs>
  <g id="_レイヤー_1-2" data-name="レイヤー 1">
    <g>
      <path class="cls-3" d="M106.63,102.85c5.11.46,13.78,4.33,13.78,4.33,0,0-3.26.93-3.26,3.03s-3.26-1.16-3.26-1.16c0,0,.93,2.79.93,4.66s-1.9-5.6-3.29-5.83l-4.9-5.02Z"/>
      <rect class="cls-1" x="0" y="0" width="190" height="290" transform="translate(190 290) rotate(-180)"/>
      <g>
        <g>
          <g>
            <g>
              <path class="cls-3" d="M73.82,113.27c8.83-2.85,24.16-4.53,39.77-5.03,4.95-.16,12.7,1.66,19.5-.25,3.37-.94,7.61-2.74,10.22-5.26,1.04-1,3.71-3.22,4.38-4.97,1.82-5.71,3.51-11.39,3.64-13.61.81-13.18-1.87-30.74-11.69-40.29-7.44-12.52-5.33-34.77-21.94-40.55-6.34-1.15-9.39,8.58-11.88,12.87-9.83,4.89-28.8,7.63-39.79,8.58-9.43-6.34-15.99-17.16-19.77-6.78-1.93,5.3.4,12.98-2.99,16.96-.51,1.91-.51,7.07-1.48,8.22-4.48,5.09-3.74,11.84-6.29,16.99-1.17,11.14-2.67,22.47,2.48,33.04,6.01,15.97,16.04,26.48,35.84,20.08Z"/>
              <path class="cls-3" d="M42.88,75.18c-2.44-2.15-6.1-1.31-12.22-3.22-4.99-1.56-11.14-.58-13.02.11-3.64,1.33-2.71,3.59-.2,3.64,2.5.05,7.88-1.42,12.02.31,4.14,1.73,1.55.65,7.86,1.43s6.64-1.32,5.56-2.27Z"/>
              <path class="cls-3" d="M44.09,83.88c-2.78.23-7.84,1.94-10.46,3.44-2.63,1.51-7.55,2.43-9.84,4.95-2.29,2.52-3.04,2.64-3.16,4.14-.12,1.56,1.02,3.28,3.58,1s4.63-4.52,8.99-6.17c4.36-1.65,6.04-2.56,9.43-3.6,4.78-1.46,2.95-3.89,1.46-3.76Z"/>
              <path class="cls-3" d="M140,63.03c1.98-2.59,5.73-2.49,11.35-5.57,4.59-2.51,10.81-2.77,12.79-2.46,3.83.59,3.35,2.98.91,3.53s-8,.16-11.73,2.68c-3.72,2.52-1.4.94-7.43,2.95-6.04,2.01-6.77.02-5.9-1.12Z"/>
              <path class="cls-3" d="M140.51,71.8c2.77-.33,8.06.35,10.93,1.31,2.87.96,7.87.89,10.61,2.91,2.74,2.02,3.5,1.99,3.91,3.44s-.36,3.42-3.32,1.69-5.42-3.52-10.02-4.28-6.42-1.32-9.95-1.67c-4.97-.48-3.65-3.23-2.17-3.4Z"/>
            </g>
            <g>
              <g>
                <path class="cls-3" d="M72.47,29.75c-.31-3.77-.71-11.46,1.94-13.11,2.64-1.66,1.12-2.47.07-1.92-4.71,2.48-4.67,5.18-4.91,10.72-.24,5.54,3,5.51,2.9,4.32Z"/>
                <path class="cls-3" d="M69.54,31.19c.17-4.54-1.89-11.84-3.95-14.31s-5.79-2.88-6.17-1.89,1.15-.09,3.2,2.38c2.05,2.47,3.44,5.24,3.9,8.08s.26,5.98.16,7.66c-.09,1.69,2.78.01,2.85-1.91Z"/>
              </g>
              <g>
                <path class="cls-3" d="M101.03,19.66c-1.62-3.48-3.15-4.63-5.26-5.03-2.11-.4-3.05-.04-3.89-.11s-.36-.98,1.02-1.09,4.07-1.05,6.14.5,4.91,4.05,5.09,6.33-.17,3.03-1.3,2.69c-1.14-.34-.95-1.5-1.79-3.3Z"/>
                <path class="cls-3" d="M104.89,19.49c-.68-1.63-1.12-6.95.03-8.05,1.16-1.1,1.87-.87,2.52-1.36s-.67-1.38-1.86-.71-2.74,2.09-3.01,3.84.23,7.88,1.46,9.36,1.2-2.25.86-3.09Z"/>
              </g>
            </g>
          </g>
          <g>
            <path class="cls-2" d="M123.18,74.87c.41,4.78-2.81,6.66-4.89,8.65-2.08,1.99-8.45,2.13-11.94.82s-9.43-7.02-10.68-8.52-2.27-2.41-2.97-1.75-.69,2.87,2.46,6.81c3.15,3.94,9.21,8.85,14.51,9.39,5.3.55,12.11-1.04,14.99-4.7s4.26-7.19,4.25-9.6c-.02-2.41-2.41-6.22-4.11-6.27s-1.96,1.17-1.62,5.16Z"/>
            <path class="cls-2" d="M89.77,74.93c-.58,2.33-3.42,8.32-8.58,11.58s-9.15,2.79-11.86,1.82c-2.71-.97-6.46-3.06-7.44-5.79-.98-2.73.91-4.7-.44-5.18-1.36-.49-2.54-1.19-3.56.1-1.02,1.29-2.16,5.41,0,8.83,2.17,3.43,4.94,7.2,10.27,8.15,5.34.95,13.08-.72,15.69-3.15,2.61-2.43,6.69-5.19,7.7-8.69,1.01-3.5,2.37-7.43,1.15-8.53-1.22-1.1-2.37-1.4-2.93.85Z"/>
            <path class="cls-2" d="M89.23,75.18c-.96-.99.15-2.62,1.39-3.53s3.46-1.3,4.39.83c.93,2.13-1.71,4.16-2.64,4.24s-1.69-.06-3.14-1.54Z"/>
            <path class="cls-2" d="M62.12,59.06c-1.74-.7-2.78-3.98-1.02-5.33,1.76-1.36,3.97.26,4.31,2.04s.41,4.78-3.28,3.29Z"/>
            <path class="cls-2" d="M117.44,53.32c-1.78-.76-1.37-2.89-.78-4.75.59-1.86,2.76-2.85,4.46-.58s-.94,6.5-3.67,5.33Z"/>
          </g>
        </g>
        <g>
          <path class="cls-3" d="M58.24,129.06c.93.93,11.41,4.89,17.47,6.29,6.05,1.4,17,1.4,26.32,1.16,9.32-.23,20.96-3.96,24.92-5.82,3.96-1.86,10.01-6.05,8.62-6.29-1.4-.23-8.38-2.79-10.71-4.42-2.33-1.63-9.32-6.99-10.95-10.95-1.63-3.96-2.1-.23-2.33,1.4-.23,1.63,1.4,6.05,5.82,9.08,4.42,3.03,5.82,4.42,6.29,4.66.75.38-15.84,4.89-22.59,5.82s-16.77-.7-21.19-1.16c-4.42-.47-12.58-3.73-12.58-4.42s3.96-3.96,6.05-5.82c2.1-1.86,5.59-8.85,5.59-11.18s-2.79.23-3.03,1.4c-.23,1.16-.93.7-1.63,2.79-1.05,3.16-3.26,5.59-5.12,7.69-1.86,2.1-5.59,5.12-9.55,6.05-3.96.93-2.33,2.79-1.4,3.73ZM64.91,125.79c.38.1,2.01,1.15,3.63,2.2,1.62,1.05,11.56,3.34,13.57,3.54,2.01.19,10.42.86,14.34.76,3.92-.1,15.2-2.2,20.16-3.54,4.97-1.34,8.98-4.01,9.27-3.92s4.49,1.72,4.11,2.01c0,0-3.44,1.91-6.21,2.87-2.77.96-8.89,3.34-11.18,3.92s-8.41.96-10.13.96-14.62.1-16.72-.1c-2.1-.19-11.95-1.24-14.72-2.01s-10.89-4.68-11.47-5.16c-.57-.48,4.97-1.62,5.35-1.53Z"/>
          <path class="cls-3" d="M58.24,129.06c-2.78-.59-3.14-1.48-6.54,1.2s-8.95,8.59-12.35,11.81c-3.4,3.22-5.73,7.87-6.26,10.02-.54,2.15-1.61,9.13-3.22,12.17-1.61,3.04-2.68,9.31-2.86,11.99s-.54,7.87-1.07,11.1-2.51,16.46-2.86,18.61c-.36,2.15.89,12.71,2.68,14.67s7.16,5.01,9.66,6.8,7.7,5.37,9.48,5.37,3.94-.36,4.83,0,1.61,1.43.18,2.86-4.65,1.07-6.08,1.07-7.87-5.01-11.45-6.98-8.23-5.73-9.31-7.7c-1.07-1.97-1.97-5.91-2.51-8.77s.18-8.59.72-12.88c.54-4.29.36-8.95.72-11.81s1.07-14.14,2.86-18.25c1.79-4.12,3.04-8.41,3.94-11.45.89-3.04,2.68-13.42,6.08-17.72s6.44-6.62,10.02-9.48,6.62-5.37,9.48-6.08c2.86-.72,5.25-.28,5.25-.28l-1.4,3.73Z"/>
          <path class="cls-3" d="M132.41,127.23c3.22.36,13.78,6.8,15.75,9.13,1.97,2.33,9.31,10.56,12.35,14.5,3.04,3.94,6.08,7.7,6.8,14.5.72,6.8,4.12,14.5,4.12,18.79s-1.61,4.29-1.25,6.08,1.25,3.04,1.43,4.47-.72,17.9-1.79,20.4c-1.07,2.51-8.77,11.1-11.1,13.06-2.33,1.97-9.48,3.76-10.56,5.19-1.07,1.43-1.07,3.58.54,3.94s5.73-.36,9.84-3.94c4.12-3.58,13.78-10.92,14.67-15.21.89-4.29,2.68-10.02,2.51-15.21s-1.43-9.84-1.25-12.71.18-5.73-.36-8.77c-.54-3.04-3.94-10.92-4.29-16.46s-2.15-8.95-3.04-11.27-6.62-9.13-9.31-12.35-8.41-8.95-12.17-11.1c-3.76-2.15-10.02-5.91-11.99-5.91s-.89,2.86-.89,2.86Z"/>
          <path class="cls-3" d="M146.37,185.03c-1.01-10.15-2.63-21.54-1.97-24.52.36-1.61,2.15-.18,2.86,1.43.72,1.61,1.25,6.44,1.43,10.92s.85,19.34,1.25,21.12c.71,3.17-.96,3.42-.96,3.42l-3.44-1.78s.1-1.09.34-4.67.73-3.47.48-5.91Z"/>
          <path class="cls-3" d="M49.11,197.74c.72-2.33.09-11.46.45-13.97s1.07.18,1.61-.54-.89-10.74-.89-13.24,1.43-6.08,2.68-6.8,1.97,1.07,1.97,2.68-1.97,10.2-1.61,14.14-.89,9.89-.72,10.92c.68,4.07.28,4.04.28,4.04l-3.77,2.77Z"/>
          <path class="cls-3" d="M152.81,238c-.89,6.26-1.79,11.27-3.4,14.32-1.61,3.04-.72,5.55-.72,8.05s-2.51,4.12-5.19,4.47-7.16,3.94-11.45,4.65c-4.29.72-8.95-.72-10.74-1.25-1.79-.54-5.91-1.43-11.1.18-5.19,1.61-9.84,1.79-13.06,2.68-3.22.89-10.38,1.43-15.39,1.07-5.01-.36-22.55-4.29-25.77-5.19s-8.95-5.01-9.66-6.8-.36-9.13,0-11.1c.36-1.97-1.07-4.29-1.07-6.62s-.58-.45-.22-4.93,3.22-4.83,3.22-4.83c-.36,3.58.04,2.42.04,4.75s.72,8.05.72,11.27c0,3.22.18,8.59.54,9.66s4.29,4.12,9.84,5.73c5.55,1.61,23.62,5.73,29.89,5.55,6.26-.18,19.51-3.4,23.62-3.94,4.12-.54,13.24,1.07,16.46.89s14.14-4.83,15.57-5.37-.18-2.33-.36-3.94,4.12-12.17,4.65-14.5l-.54-5.55,4.35-2.42-.24,3.14Z"/>
          <path class="cls-3" d="M54.92,265.2c0,1.79.54,18.19,1.43,18.79,2.15,1.43,10.2,1.79,14.14,2.51,3.94.72,23.98-.18,32.39,0,8.41.18,30.42-.72,32.03-1.07s2.33-3.4,2.68-5.37.54-13.96.54-13.96c0,0-9.48,1.43-12.88,1.43s-8.23-1.25-11.27-.54-12.53,2.33-16.11,2.51c-3.58.18-12.53,1.25-16.82.72s-13.78-1.79-18.07-2.68-8.05-2.33-8.05-2.33Z"/>
          <g>
            <g>
              <g>
                <path class="cls-3" d="M87.72,178.65c3.46-.63,9.32-.49,15.21.1,1.87.19,4.69,1.26,7.35.88,1.31-.19,3-.65,4.11-1.47.44-.32,1.56-1.03,1.9-1.65.97-2.06,1.89-4.11,2.05-4.94.97-4.92.84-11.66-2.38-15.74-2.17-5.08-.26-13.35-6.22-16.35-2.33-.75-3.96,2.76-5.11,4.24-3.94,1.35-11.22,1.43-15.4,1.23-3.23-2.86-5.16-7.26-7.1-3.54-.99,1.9-.5,4.9-1.98,6.23-.29.69-.55,2.63-.97,3.02-1.94,1.69-2,4.26-3.22,6.07-1,4.13-2.13,8.32-.72,12.55,1.46,6.31,4.71,10.76,12.48,9.35Z"/>
                <path class="cls-3" d="M77.99,158.52c-.81-.93-2.23-.8-4.43-1.82-1.8-.84-4.16-.78-4.9-.61-1.44.32-1.2,1.21-.26,1.36s3.04-.14,4.51.72.55.32,2.89.93c2.33.61,2.56-.16,2.21-.57Z"/>
                <path class="cls-3" d="M78.01,159.92c-1.06-.05-3.05.34-4.11.77s-2.96.54-3.95,1.37-1.28.84-1.4,1.4.22,1.29,1.3.56,1.97-1.47,3.69-1.87,2.4-.66,3.73-.88c1.87-.31,1.31-1.31.74-1.34Z"/>
                <path class="cls-3" d="M115.13,158.81c.87-.87,2.28-.65,4.55-1.53,1.85-.72,4.21-.5,4.93-.29,1.41.41,1.11,1.29.16,1.37s-3.02-.34-4.54.42-.57.29-2.94.74c-2.37.45-2.55-.33-2.16-.72Z"/>
                <path class="cls-3" d="M114.88,160.21c1.06.02,3.02.54,4.05,1.04s2.92.73,3.85,1.63,1.22.92,1.3,1.49-.31,1.27-1.33.47-1.86-1.59-3.55-2.11-2.35-.82-3.66-1.12c-1.85-.43-1.21-1.4-.65-1.39Z"/>
              </g>
              <g>
                <g>
                  <path class="cls-3" d="M91.4,147.16c.07-1.43.31-4.34,1.39-4.83s.55-.87.12-.72c-1.9.7-2.02,1.71-2.38,3.78-.37,2.07.85,2.22.87,1.77Z"/>
                  <path class="cls-3" d="M90.22,147.56c.29-1.7-.12-4.55-.77-5.58s-2.03-1.37-2.23-1.02.44.02,1.09,1.05,1.03,2.14,1.06,3.23-.2,2.26-.32,2.89,1.04.14,1.17-.58Z"/>
                </g>
                <g>
                  <path class="cls-3" d="M102.64,144.8c-.44-1.39-.95-1.9-1.73-2.15s-1.15-.17-1.46-.24-.09-.39.44-.36,1.58-.19,2.28.5,1.64,1.77,1.6,2.64-.21,1.13-.63.95-.28-.61-.51-1.33Z"/>
                  <path class="cls-3" d="M104.11,144.93c-.17-.65-.07-2.67.42-3.02s.75-.23,1.02-.38-.18-.55-.66-.36-1.14.65-1.33,1.29-.31,2.98.08,3.59.56-.79.48-1.12Z"/>
                </g>
              </g>
            </g>
            <g>
              <path class="cls-2" d="M108.21,161.91c-.09,1.82-1.39,2.37-2.27,3.01s-3.29.38-4.53-.29-3.19-3.11-3.59-3.74-.73-1.02-1.03-.81-.4,1.04.58,2.69,3.02,3.79,4.99,4.26c1.97.47,4.61.22,5.87-1.02s1.96-2.49,2.08-3.4-.6-2.46-1.23-2.56-.8.34-.87,1.86Z"/>
              <path class="cls-2" d="M95.64,160.26c-.33.85-1.7,2.96-3.81,3.92s-3.58.59-4.55.09-2.28-1.47-2.51-2.55.58-1.72.09-1.97-.9-.57-1.34-.14-1.08,1.92-.44,3.32,1.5,2.96,3.46,3.58,4.96.38,6.06-.4,2.78-1.62,3.33-2.88c.56-1.27,1.26-2.68.86-3.15s-.82-.65-1.15.17Z"/>
              <path class="cls-2" d="M95.42,160.32c-.31-.42.19-.98.7-1.26s1.36-.32,1.61.53-.85,1.48-1.21,1.46-.63-.11-1.1-.74Z"/>
              <path class="cls-2" d="M86.04,154.58c-.62-.35-.85-1.64-.12-2.06s1.48.3,1.52.98-.09,1.82-1.4,1.07Z"/>
              <path class="cls-2" d="M107.13,155.19c-.63-.38-.37-1.16-.06-1.83s1.18-.93,1.71,0-.68,2.4-1.65,1.82Z"/>
            </g>
          </g>
          <path class="cls-3" d="M151,232.41c-4.3.05-15.87-8.18-18.28-10.01s-9.22-9.95-10.88-9.51-2.66,2.62-1.76,3.69,7.13,5.71,13.14,11.03,11.8,8.31,16.02,9.24,5.6-2.38,5.6-2.38l-3.84-2.06Z"/>
          <path class="cls-3" d="M157.44,201.71c-3.73-3.12-13.96-10.76-16.2-11.91-2.24-1.16-6.86-.59-6.86-.59,0,0-1.05,1.5,1.87,3.27,2.92,1.77,4.37.67,6.83,3.33s9.43,5.21,11.84,8.09,3.69,3.62,5.42,2.74-.66-3.04-2.91-4.92Z"/>
          <path class="cls-3" d="M51.39,230.62c3.19-1.39,16.04-9.99,19.63-16.5,3.58-6.51,3.11-5.78,4.33-5.83s1.73,2.98.5,4.99c-1.23,2.02-3.63,4.94-8.36,9.76-4.73,4.83-10.2,8.6-11.37,9.87s-10.5,4.81-10.5,4.81l-1.25-4.57s3.24-.88,7.02-2.53Z"/>
          <path class="cls-3" d="M132.12,164.38c-1.6-2.09-5.01-2.68-7.92.29-4.2,4.28-10.35,10.59-10.35,10.59,0,0-16.59.79-18.48.91s-13.5.08-13.5.08c0,0-9.37-9.5-12.95-10.72-3.58-1.23-6.1,1.33-3.3,8.45,1,2.55,2.51,4.99,4.03,7.07.92.18,2.09,1.67,1.88,2.38,0,0,0,.01,0,.02.64.77,1.25,1.45,1.77,2.02,3.09-2.07,5.6-3.81,8.81-3.9,3.75-.1,7.21.44,7.22,3.09,0,1.82-3.15.77-7.89,2.02-4.74,1.25-3.42,2.86-2.18,2.86s8.38-2.57,11.16-2.42c2,.11,3.33,2.66,1.33,3.66s-7.72,1.86-10.21,3.11-1.86,2.39.89,1.89c2.74-.5,5.86-1.61,8.1-2.11s2.47,1.94.22,3.44-6.41,3.41-8.66,3.66c-2.24.25.24,1.85,2.73,1.35s4.24-1.75,4.99-.75.5,2-2.99,3.24c-2.14.77-4.89,1.9-6.7,2.67,1.98,7.09,4.19,13.93,5.92,16.37,4.1,5.79,10.82.32,12-2.9,1.18-3.21,2.38-5.4,2.38-5.4,0,0,1.22,3.63,3.56,5.81,2.33,2.18,6.88,2.62,9.85.02,2.97-2.6,3.44-10.59,3.78-13.17.04-.3.09-.72.16-1.24-.27-.09-.44-.15-.44-.15,0,0-5.12-2.24-8.61-3.48-3.49-1.25-3.74-2.24-2.99-3.24.75-1,2.49.25,4.99.75,2.49.5,4.97-1.1,2.73-1.35s-6.41-2.17-8.66-3.66c-2.24-1.5-2.02-3.94.22-3.44,2.24.5,5.36,1.61,8.1,2.11,2.74.5,3.38-.64.89-1.89-2.49-1.25-8.21-2.11-10.21-3.11s-.67-3.55,1.33-3.66c2.78-.15,9.92,2.42,11.16,2.42s2.56-1.61-2.18-2.86c-4.74-1.25-7.89-.2-7.89-2.02,0-2.64,3.47-3.19,7.22-3.09,4.11.11,4.49.67,8.98,3.42,0,0,1.61-.48,1.1-2.19-.26-.86.67-1.65,1.55-1.1.19.12.36.24.54.36,2.67-4.85,7.84-14.43,6.49-16.2Z"/>
          <path class="cls-3" d="M33.21,208.88s8.36-8.39,15.61-13.18,12.42-7.8,13.71-7.71,8.18,4.12,5.66,5.66c-.49.3-4.29-2.84-5.45-2.19-4.75,2.64-13.8,7.55-16.88,9.93-3.82,2.96-8.83,9.29-11.5,11.14s-2.78-.88-1.15-3.64Z"/>
          <path class="cls-3" d="M65.53,194.15c3.3,1.83,7.47,9.14,7.71,12.11.25,2.97-2.72,7.91-3.46,10.13s3.21,0,4.7-1.24,3.15-3.26,2.44-8.05-1.6-9.49-5.06-12.95-9.51-6.06-11.99-4.83-3.92,4.09-2.19,4.33,3.41-1.98,7.85.49Z"/>
          <path class="cls-3" d="M137.77,193.15c-3.15-.63-6.82-.33-7.99,1s-5.33,7.16-6.49,10.49.33,8.82,1.83,10.49,1,3.33-.33,4-2.66.33-3.83-1.33-2-4-2-8.16,3.33-13.82,4.99-15.98,5.99-4.99,8.82-5.49,6.62.78,8.47,1.64-1.81,3.69-3.48,3.35Z"/>
          <path class="cls-3" d="M123.26,177.75c4.06,2.54,8.93,9.52,10.2,12.57s-2.55,2.22-2.8.95-1.41-3.73-4.2-7.04-4.84-5.03-4.84-5.03l1.65-1.46Z"/>
          <polygon class="cls-3" points="120.75 211.08 113.64 208.28 115.16 205.99 120.5 207.52 120.75 211.08"/>
          <path class="cls-3" d="M62.53,187.99s1.97-6.75,2.98-9.04,4.18-2.43,5.19-.9c1.02,1.52.96,2.8,1.17,3.94.3,1.63,2.21.38,2.21.38l.38-.38,2.09-1.65,2.26,1.65s-4.47,2.5-5.49,3.52-3.31-.25-3.31-.83,0-2.69-.57-4.28-2.33-.58-2.62.73-2.33,8.87-2.33,8.87l-4.63-.68,2.66-1.33Z"/>
          <path class="cls-3" d="M81.22,206.58c-1.89.87-5.53,2.33-5.53,2.33l.44,1.89,8-2.62.29-2.33-3.2.73Z"/>
        </g>
      </g>
    </g>
  </g>
</svg>