<?xml version="1.0" encoding="UTF-8"?>
<svg id="_レイヤー_2" data-name="レイヤー 2" xmlns="http://www.w3.org/2000/svg" viewBox="0 0 190 290">
  <defs>
    <style>
      .cls-1 {
        fill: none;
      }

      .cls-2 {
        fill: #fff;
      }

      .cls-3 {
        fill: #333;
      }
    </style>
  </defs>
  <g id="_レイヤー_1-2" data-name="レイヤー 1">
    <g>
      <g>
        <g>
          <g>
            <path class="cls-3" d="M62.16,118.74c7.44-3.82,20.83-7.52,34.63-10.23,4.37-.86,11.53-.36,17.31-3.04,2.86-1.33,6.37-3.54,8.33-6.15.78-1.04,2.83-3.4,3.18-5.05.79-5.34,1.47-10.64,1.27-12.63-1.18-11.84-6.11-27.07-16.22-34.14-8.43-10.06-9.77-30.15-25.37-32.89-5.8-.1-7.11,8.99-8.7,13.16-8.03,5.77-24.51,10.95-34.14,13.38-9.31-4.27-16.7-12.95-18.56-3.17-.95,4.99,2.23,11.48-.21,15.52-.18,1.77.56,6.36-.13,7.52-3.25,5.17-1.62,11.07-3.14,16.01.57,10.07.87,20.37,6.98,29.02,7.65,13.33,18.09,21.23,34.77,12.67Z"/>
            <path class="cls-3" d="M29.14,89.35c-2.48-1.56-5.62-.28-11.33-1.1-4.66-.66-9.99,1.1-11.56,1.98-3.04,1.71-1.89,3.58.35,3.27,2.23-.31,6.8-2.4,10.73-1.46,3.93.94,1.47.35,7.2.13,5.72-.22,5.71-2.13,4.62-2.82Z"/>
            <path class="cls-3" d="M31.47,96.91c-2.43.6-6.69,2.85-8.81,4.58-2.12,1.72-6.36,3.25-8.04,5.82s-2.32,2.79-2.21,4.14c.12,1.41,1.38,2.77,3.33.37s3.46-4.69,7.1-6.79,5-3.15,7.86-4.56c4.04-1.99,2.06-3.88.76-3.56Z"/>
            <path class="cls-3" d="M113.74,64.5c1.38-2.59,4.73-3.05,9.29-6.6,3.72-2.9,9.21-4.02,11.02-4.04,3.49-.03,3.41,2.17,1.32,3.01s-7.09,1.3-10.04,4.08c-2.95,2.78-1.1,1.04-6.18,3.7-5.08,2.66-6.02.99-5.41-.15Z"/>
            <path class="cls-3" d="M115.47,72.23c2.41-.69,7.22-.85,9.91-.41,2.69.44,7.13-.35,9.86,1.05,2.73,1.4,3.4,1.26,3.97,2.49s.18,3.09-2.7,1.98c-2.88-1.11-5.33-2.35-9.53-2.35s-5.9-.25-9.09-.04c-4.49.29-3.72-2.34-2.42-2.71Z"/>
          </g>
          <g>
            <g>
              <path class="cls-3" d="M48.89,44.67c-.82-3.31-2.28-10.08-.17-11.94,2.11-1.85.64-2.36-.21-1.72-3.83,2.88-3.4,5.28-2.82,10.24.59,4.96,3.46,4.47,3.2,3.42Z"/>
              <path class="cls-3" d="M46.48,46.37c-.5-4.06-3.4-10.25-5.58-12.15s-5.57-1.73-5.76-.79,1.01-.25,3.19,1.65,3.81,4.16,4.64,6.62c.82,2.46,1.09,5.28,1.25,6.79.16,1.51,2.47-.39,2.26-2.11Z"/>
            </g>
            <g>
              <path class="cls-3" d="M72.82,31.56c-1.95-2.86-3.47-3.66-5.41-3.71-1.94-.05-2.72.41-3.48.46s-.46-.82.75-1.12,3.47-1.52,5.53-.44,4.95,2.89,5.44,4.9.29,2.72-.77,2.58-1.07-1.2-2.07-2.67Z"/>
              <path class="cls-3" d="M76.23,30.85c-.84-1.35-2-6.01-1.13-7.16s1.54-1.04,2.05-1.57-.79-1.13-1.76-.36-2.13,2.26-2.12,3.85,1.34,6.97,2.65,8.11.74-2.18.32-2.87Z"/>
            </g>
          </g>
        </g>
        <g>
          <path class="cls-2" d="M100.5,77.46c1.06,4.19-1.53,6.33-3.1,8.4-1.56,2.07-7.21,3.12-10.5,2.46s-9.4-4.88-10.73-6.03c-1.33-1.15-2.37-1.82-2.89-1.13s-.2,2.65,3.17,5.7,9.47,6.53,14.26,6.26c4.8-.28,10.62-2.68,12.65-6.35s2.75-7.01,2.39-9.15c-.36-2.14-3.04-5.18-4.56-4.98s-1.58,1.33-.7,4.82Z"/>
          <path class="cls-2" d="M70.8,82.34c-.17,2.15-1.83,7.9-5.96,11.54-4.12,3.64-7.73,3.81-10.28,3.33-2.55-.47-6.19-1.79-7.46-4.07-1.27-2.28.13-4.31-1.14-4.54-1.28-.24-2.43-.69-3.15.61-.72,1.3-1.14,5.12,1.28,7.85,2.43,2.73,5.43,5.69,10.32,5.76,4.88.07,11.53-2.53,13.49-5.07,1.97-2.54,5.2-5.58,5.59-8.84.4-3.26,1.03-6.95-.21-7.75-1.24-.8-2.31-.9-2.48,1.18Z"/>
          <path class="cls-2" d="M70.35,82.64c-1-.74-.25-2.35.72-3.34s2.88-1.66,4.02.1c1.14,1.76-.92,3.95-1.73,4.15s-1.51.2-3.01-.91Z"/>
          <path class="cls-2" d="M43.92,72.23c-1.65-.37-1.73-1.81-.36-3.27,1.37-1.46,12.07-7.13,12.63-5.59s-8.78,9.66-12.28,8.87Z"/>
          <path class="cls-2" d="M92.28,59.13c-1.69-.42-12.4-.33-12.14-2.06s14.12-3.65,15.96-1.89c1.84,1.77-1.22,4.6-3.82,3.95Z"/>
        </g>
      </g>
      <g>
        <g>
          <path class="cls-3" d="M63.1,127.06c-1.68-1.6-2.07-2.55,2.04-1.37,4.12,1.18,10.45.75,18.28-.55s17.15-7.38,18.12-8.99,2.31-1,2.11.27-10.32,11.21-17.12,13.78c-6.8,2.57-17.51.22-19.72-.66s-2.24-1.07-3.71-2.48Z"/>
          <path class="cls-3" d="M89.6,138.77c-2.56,1.21-5.42.9-6.69-1.78-1.27-2.68,2.01-5.29,4.46-5.49,2.44-.2,3.45,2.11,3.91,3.69.47,1.57-.34,2.95-1.68,3.58Z"/>
        </g>
        <g>
          <g>
            <path class="cls-3" d="M49.45,124.84c0,2.96.68,11.77-.3,16.63-.97,4.86-4.92,27.55-6.38,30.95-1.46,3.4-6.8,20.9-9.24,35.97-2.43,15.07-.49,23.33,1.46,29.16,1.94,5.83,7.29,13.61,11.67,16.53s10.69,1.46,12.15,2.43,1.46,4.86-1.46,4.86-10.21.49-16.04-2.92c-5.83-3.4-13.12-17.01-14.1-25.28-.97-8.26-.49-16.53.49-25.28.97-8.75,7.78-31.59,9.24-35,1.46-3.4,7.16-22.09,7.16-25.5s.51-14.63,1.48-19-6.67-10.01-3.27-10.99c3.4-.97,7.13,4.99,7.13,7.42Z"/>
            <path class="cls-3" d="M53,241.04c.05,5.02,1.33,17.05,4.36,20.33,3.02,3.28,5.97.92,7.15.62s1.48,2.36,5.02,2.36,5.61-1.77,5.61-1.77c0,0-.59,1.48,2.95,1.48s3.25-8.26,2.66-17.71c-.59-9.44-2.36-19.77-2.36-24.2s-3.54-3.54-3.84-1.18c-.3,2.36-.59,9.15-.3,14.46.3,5.31,2.95,16.23,2.95,18.59s-3.39,5.22-5.42,6.03-7.13-2.04-8.35-1.83-4.28-.81-5.5-4.48-1.83-11.81-1.83-14.26-3.13-1.99-3.09,1.55Z"/>
            <path class="cls-3" d="M106.8,259.24c3.7.37,8.35-1.43,12.83-2.85,4.48-1.43,8.15-5.91,11.2-9.98s3.67-9.57,4.28-15.27c.61-5.7,1.02-22,.2-41.34-.81-19.35-9.37-48.53-12.23-55.45-2.85-6.92-14.44-29.85-14.85-31.48s2.25-3.63,3.27-1.19c1.02,2.44,12.51,22.01,14.55,27.91,2.04,5.91,4.11,12.26,5.94,16.33s3.94,15.15,4.75,18.41.4,9.58.81,12.63c.41,3.05,1.63,16.09,1.63,20.37s2.44,22,1.02,25.86-1.63,12.22-2.24,14.26c-.61,2.04-4.28,13.85-5.91,16.29-1.63,2.44-7.54,5.3-11.2,7.13-3.67,1.83-8.55,2.24-12.63,2.04s-4.07-1.22-3.67-2.04.2-1.83,2.24-1.63Z"/>
            <path class="cls-3" d="M87.25,258.63c-.59-3.24.61-26.88,1.02-30.14.41-3.26-1.22-7.33.2-8.35s4.07-.61,4.07,1.22.61,9.78.2,12.83c-.41,3.05-.41,13.44-1.02,17.31-.61,3.87-1.43,7.54.41,8.96s6.92,1.63,9.16.61,3.67-1.83,6.11-5.3,3.46-11.61,4.28-13.44c.81-1.83,2.24-2.44,2.85,0s-1.02,10.18-1.83,12.02-1.63,6.31-4.48,8.55c-2.85,2.24-8.96,2.85-8.96,1.83s-.81,1.63-4.07,1.22c-3.26-.41-3.46-2.65-3.46-2.65,0,0-.61,2.44-2.44,2.04s-1.63-4.48-2.04-6.72Z"/>
            <path class="cls-3" d="M80.53,259.45c1.8.28,6.92.41,7.74.61s1.83,2.24.2,2.44-8.76,0-9.98-.2-.61-3.26,2.04-2.85Z"/>
          </g>
          <path class="cls-3" d="M132.06,253.74c9.87,1.41,26.03-.11,38.15-2.13,12.12-2.02,11.39-10.98,9.87-15.02-1.51-4.04-11.89-13.76-19.97-6.69-8.08,7.07-6.06,12.12-3.53,13.63s7.07-1.28,4.12-2.6c-1.5-.67-1.76-2.27.37-5.01,2.13-2.74,7.25-4,9.99-2.17s6.46,3.07,4.85,9.53c-.84,3.34-4.87,3.96-8.52,5.18s-13.93,1.47-19.71,1.77c-5.78.3-14.31-1.83-14.31-1.83l3.35-7s5.26.44,8.61.54c3.72.11,9.02.43,10.7,0,2.73-.71.48-2.36.48-2.36,0,0,.99-1.48-7.84-1.48s-12.54-3.01-12.54-3.01l-6.42,16.97,2.35,1.68Z"/>
        </g>
      </g>
      <rect class="cls-1" width="190" height="290"/>
    </g>
  </g>
</svg>